%TF.GenerationSoftware,KiCad,Pcbnew,10.0.6*%
%TF.CreationDate,2026-09-14T21:58:20+08:00*%
%TF.ProjectId,V-Power,562d506f-7765-4722-9e6b-696361645f70,rev?*%
%TF.SameCoordinates,Original*%
%TF.FileFunction,Soldermask,Bot*%
%TF.FilePolarity,Negative*%
%FSLAX46Y46*%
G04 Gerber Fmt 4.6, Leading zero omitted, Abs format (unit mm)*
G04 Created by KiCad (PCBNEW 10.0.6) date 2026-09-14 21:58:20*
%MOMM*%
%LPD*%
G01*
G04 APERTURE LIST*
G04 Aperture macros list*
%AMRoundRect*
0 Rectangle with rounded corners*
0 $1 Rounding radius*
0 $2 $3 $4 $5 $6 $7 $8 $9 X,Y pos of 4 corners*
0 Add a 4 corners polygon primitive as box body*
4,1,4,$2,$3,$4,$5,$6,$7,$8,$9,$2,$3,0*
0 Add four circle primitives for the rounded corners*
1,1,$1+$1,$2,$3*
1,1,$1+$1,$4,$5*
1,1,$1+$1,$6,$7*
1,1,$1+$1,$8,$9*
0 Add four rect primitives between the rounded corners*
20,1,$1+$1,$2,$3,$4,$5,0*
20,1,$1+$1,$4,$5,$6,$7,0*
20,1,$1+$1,$6,$7,$8,$9,0*
20,1,$1+$1,$8,$9,$2,$3,0*%
G04 Aperture macros list end*
%ADD10C,2.200000*%
%ADD11C,2.000000*%
%ADD12O,1.600000X2.000000*%
%ADD13R,1.800000X1.800000*%
%ADD14C,1.800000*%
%ADD15C,1.500000*%
%ADD16R,2.000000X2.000000*%
%ADD17R,3.200000X2.000000*%
%ADD18R,1.700000X1.700000*%
%ADD19C,1.700000*%
%ADD20RoundRect,0.550800X0.875000X0.500000X-0.875000X0.500000X-0.875000X-0.500000X0.875000X-0.500000X0*%
%ADD21RoundRect,0.275000X-0.975000X-0.275000X0.975000X-0.275000X0.975000X0.275000X-0.975000X0.275000X0*%
%ADD22RoundRect,0.625000X0.750000X0.625000X-0.750000X0.625000X-0.750000X-0.625000X0.750000X-0.625000X0*%
%ADD23C,1.600000*%
G04 APERTURE END LIST*
D10*
%TO.C,H2*%
X50000000Y-147500000D03*
%TD*%
%TO.C,H3*%
X117500000Y-147500000D03*
%TD*%
%TO.C,H1*%
X50000000Y-94000000D03*
%TD*%
D11*
%TO.C,SW2*%
X86500000Y-134950000D03*
X93000000Y-134950000D03*
X86500000Y-139450000D03*
X93000000Y-139450000D03*
%TD*%
D10*
%TO.C,H4*%
X117500000Y-94000000D03*
%TD*%
D11*
%TO.C,SW1*%
X96000000Y-127500000D03*
X102500000Y-127500000D03*
X96000000Y-132000000D03*
X102500000Y-132000000D03*
%TD*%
D12*
%TO.C,J1-OLED1*%
X80390000Y-92260000D03*
X82930000Y-92260000D03*
X85470000Y-92260000D03*
X88010000Y-92260000D03*
%TD*%
D11*
%TO.C,SW3*%
X105500000Y-135000000D03*
X112000000Y-135000000D03*
X105500000Y-139500000D03*
X112000000Y-139500000D03*
%TD*%
D13*
%TO.C,D2*%
X111500000Y-108000000D03*
D14*
X108960000Y-108000000D03*
%TD*%
D15*
%TO.C,SW4*%
X74500000Y-135000000D03*
X74500000Y-140000000D03*
D16*
X60000000Y-135000000D03*
D11*
X60000000Y-140000000D03*
X60000000Y-137500000D03*
D17*
X67500000Y-131900000D03*
X67500000Y-143100000D03*
%TD*%
D11*
%TO.C,SW5*%
X96000000Y-142500000D03*
X102500000Y-142500000D03*
X96000000Y-147000000D03*
X102500000Y-147000000D03*
%TD*%
D13*
%TO.C,D1*%
X111500000Y-98500000D03*
D14*
X108960000Y-98500000D03*
%TD*%
D18*
%TO.C,J2-MAX1*%
X59880000Y-115000000D03*
D19*
X62420000Y-115000000D03*
X64960000Y-115000000D03*
X67500000Y-115000000D03*
%TD*%
D20*
%TO.C,U1*%
X77000000Y-93500000D03*
X77000000Y-96040000D03*
X77000000Y-98580000D03*
X77000000Y-101120000D03*
X77000000Y-103660000D03*
X77000000Y-106200000D03*
X77000000Y-108740000D03*
X60835000Y-108740000D03*
X60835000Y-106200000D03*
X60835000Y-103660000D03*
X60835000Y-101120000D03*
X60835000Y-98580000D03*
X60835000Y-96040000D03*
X60835000Y-93500000D03*
D19*
X70215000Y-92488000D03*
X67675000Y-92488000D03*
X70215000Y-95028000D03*
X67675000Y-95028000D03*
X70215000Y-97568000D03*
X67675000Y-97568000D03*
X70215000Y-100108000D03*
X67675000Y-100108000D03*
D21*
X73390000Y-100738000D03*
X73390000Y-98833000D03*
D22*
X67825000Y-103120000D03*
%TD*%
D23*
%TO.C,R1*%
X101500000Y-92500000D03*
X101500000Y-102660000D03*
%TD*%
%TO.C,R2*%
X101500000Y-106500000D03*
X101500000Y-116660000D03*
%TD*%
M02*
