%TF.GenerationSoftware,KiCad,Pcbnew,10.0.6*%
%TF.CreationDate,2026-09-14T21:57:41+08:00*%
%TF.ProjectId,V-Power,562d506f-7765-4722-9e6b-696361645f70,rev?*%
%TF.SameCoordinates,Original*%
%TF.FileFunction,Drillmap*%
%TF.FilePolarity,Positive*%
%FSLAX45Y45*%
G04 Gerber Fmt 4.5, Leading zero omitted, Abs format (unit mm)*
G04 Created by KiCad (PCBNEW 10.0.6) date 2026-09-14 21:57:41*
%MOMM*%
%LPD*%
G01*
G04 APERTURE LIST*
%ADD10C,0.050000*%
%ADD11C,0.200000*%
%ADD12C,0.220000*%
G04 APERTURE END LIST*
D10*
X4450000Y-9400000D02*
X4450000Y-14500000D01*
X4450000Y-9400000D02*
G75*
G02*
X5000000Y-8850000I550000J0D01*
G01*
X4450000Y-14500000D02*
X4450000Y-14750000D01*
X5000000Y-8850000D02*
X11750000Y-8850000D01*
X5000000Y-15300000D02*
G75*
G02*
X4450000Y-14750000I0J550000D01*
G01*
X5500000Y-15300000D02*
X5000000Y-15300000D01*
X11750000Y-8850000D02*
G75*
G02*
X12300000Y-9400000I0J-550000D01*
G01*
X11750000Y-15300000D02*
X5500000Y-15300000D01*
X12300000Y-9400000D02*
X12300000Y-14750000D01*
X12300000Y-14750000D02*
G75*
G02*
X11750000Y-15300000I-550000J0D01*
G01*
D11*
D12*
X4890000Y-9290000D02*
X5110000Y-9510000D01*
X5110000Y-9290000D02*
X4890000Y-9510000D01*
X4890000Y-14640000D02*
X5110000Y-14860000D01*
X5110000Y-14640000D02*
X4890000Y-14860000D01*
X11640000Y-9290000D02*
X11860000Y-9510000D01*
X11860000Y-9290000D02*
X11640000Y-9510000D01*
X11640000Y-14640000D02*
X11860000Y-14860000D01*
X11860000Y-14640000D02*
X11640000Y-14860000D01*
D11*
X4708277Y-15613984D02*
X4708277Y-15413984D01*
X4708277Y-15413984D02*
X4755896Y-15413984D01*
X4755896Y-15413984D02*
X4784467Y-15423508D01*
X4784467Y-15423508D02*
X4803515Y-15442555D01*
X4803515Y-15442555D02*
X4813039Y-15461603D01*
X4813039Y-15461603D02*
X4822563Y-15499698D01*
X4822563Y-15499698D02*
X4822563Y-15528269D01*
X4822563Y-15528269D02*
X4813039Y-15566365D01*
X4813039Y-15566365D02*
X4803515Y-15585412D01*
X4803515Y-15585412D02*
X4784467Y-15604460D01*
X4784467Y-15604460D02*
X4755896Y-15613984D01*
X4755896Y-15613984D02*
X4708277Y-15613984D01*
X4908277Y-15613984D02*
X4908277Y-15480650D01*
X4908277Y-15518746D02*
X4917801Y-15499698D01*
X4917801Y-15499698D02*
X4927324Y-15490174D01*
X4927324Y-15490174D02*
X4946372Y-15480650D01*
X4946372Y-15480650D02*
X4965420Y-15480650D01*
X5032086Y-15613984D02*
X5032086Y-15480650D01*
X5032086Y-15413984D02*
X5022563Y-15423508D01*
X5022563Y-15423508D02*
X5032086Y-15433031D01*
X5032086Y-15433031D02*
X5041610Y-15423508D01*
X5041610Y-15423508D02*
X5032086Y-15413984D01*
X5032086Y-15413984D02*
X5032086Y-15433031D01*
X5155896Y-15613984D02*
X5136848Y-15604460D01*
X5136848Y-15604460D02*
X5127324Y-15585412D01*
X5127324Y-15585412D02*
X5127324Y-15413984D01*
X5260658Y-15613984D02*
X5241610Y-15604460D01*
X5241610Y-15604460D02*
X5232086Y-15585412D01*
X5232086Y-15585412D02*
X5232086Y-15413984D01*
X5489229Y-15613984D02*
X5489229Y-15413984D01*
X5489229Y-15413984D02*
X5555896Y-15556841D01*
X5555896Y-15556841D02*
X5622562Y-15413984D01*
X5622562Y-15413984D02*
X5622562Y-15613984D01*
X5803515Y-15613984D02*
X5803515Y-15509222D01*
X5803515Y-15509222D02*
X5793991Y-15490174D01*
X5793991Y-15490174D02*
X5774943Y-15480650D01*
X5774943Y-15480650D02*
X5736848Y-15480650D01*
X5736848Y-15480650D02*
X5717801Y-15490174D01*
X5803515Y-15604460D02*
X5784467Y-15613984D01*
X5784467Y-15613984D02*
X5736848Y-15613984D01*
X5736848Y-15613984D02*
X5717801Y-15604460D01*
X5717801Y-15604460D02*
X5708277Y-15585412D01*
X5708277Y-15585412D02*
X5708277Y-15566365D01*
X5708277Y-15566365D02*
X5717801Y-15547317D01*
X5717801Y-15547317D02*
X5736848Y-15537793D01*
X5736848Y-15537793D02*
X5784467Y-15537793D01*
X5784467Y-15537793D02*
X5803515Y-15528269D01*
X5898753Y-15480650D02*
X5898753Y-15680650D01*
X5898753Y-15490174D02*
X5917801Y-15480650D01*
X5917801Y-15480650D02*
X5955896Y-15480650D01*
X5955896Y-15480650D02*
X5974943Y-15490174D01*
X5974943Y-15490174D02*
X5984467Y-15499698D01*
X5984467Y-15499698D02*
X5993991Y-15518746D01*
X5993991Y-15518746D02*
X5993991Y-15575888D01*
X5993991Y-15575888D02*
X5984467Y-15594936D01*
X5984467Y-15594936D02*
X5974943Y-15604460D01*
X5974943Y-15604460D02*
X5955896Y-15613984D01*
X5955896Y-15613984D02*
X5917801Y-15613984D01*
X5917801Y-15613984D02*
X5898753Y-15604460D01*
X6079705Y-15594936D02*
X6089229Y-15604460D01*
X6089229Y-15604460D02*
X6079705Y-15613984D01*
X6079705Y-15613984D02*
X6070182Y-15604460D01*
X6070182Y-15604460D02*
X6079705Y-15594936D01*
X6079705Y-15594936D02*
X6079705Y-15613984D01*
X6079705Y-15490174D02*
X6089229Y-15499698D01*
X6089229Y-15499698D02*
X6079705Y-15509222D01*
X6079705Y-15509222D02*
X6070182Y-15499698D01*
X6070182Y-15499698D02*
X6079705Y-15490174D01*
X6079705Y-15490174D02*
X6079705Y-15509222D01*
X4247500Y-15842500D02*
X4447500Y-16042500D01*
X4447500Y-15842500D02*
X4247500Y-16042500D01*
X4698753Y-15853031D02*
X4708277Y-15843508D01*
X4708277Y-15843508D02*
X4727324Y-15833984D01*
X4727324Y-15833984D02*
X4774944Y-15833984D01*
X4774944Y-15833984D02*
X4793991Y-15843508D01*
X4793991Y-15843508D02*
X4803515Y-15853031D01*
X4803515Y-15853031D02*
X4813039Y-15872079D01*
X4813039Y-15872079D02*
X4813039Y-15891127D01*
X4813039Y-15891127D02*
X4803515Y-15919698D01*
X4803515Y-15919698D02*
X4689229Y-16033984D01*
X4689229Y-16033984D02*
X4813039Y-16033984D01*
X4898753Y-16014936D02*
X4908277Y-16024460D01*
X4908277Y-16024460D02*
X4898753Y-16033984D01*
X4898753Y-16033984D02*
X4889229Y-16024460D01*
X4889229Y-16024460D02*
X4898753Y-16014936D01*
X4898753Y-16014936D02*
X4898753Y-16033984D01*
X4984467Y-15853031D02*
X4993991Y-15843508D01*
X4993991Y-15843508D02*
X5013039Y-15833984D01*
X5013039Y-15833984D02*
X5060658Y-15833984D01*
X5060658Y-15833984D02*
X5079705Y-15843508D01*
X5079705Y-15843508D02*
X5089229Y-15853031D01*
X5089229Y-15853031D02*
X5098753Y-15872079D01*
X5098753Y-15872079D02*
X5098753Y-15891127D01*
X5098753Y-15891127D02*
X5089229Y-15919698D01*
X5089229Y-15919698D02*
X4974944Y-16033984D01*
X4974944Y-16033984D02*
X5098753Y-16033984D01*
X5222563Y-15833984D02*
X5241610Y-15833984D01*
X5241610Y-15833984D02*
X5260658Y-15843508D01*
X5260658Y-15843508D02*
X5270182Y-15853031D01*
X5270182Y-15853031D02*
X5279705Y-15872079D01*
X5279705Y-15872079D02*
X5289229Y-15910174D01*
X5289229Y-15910174D02*
X5289229Y-15957793D01*
X5289229Y-15957793D02*
X5279705Y-15995888D01*
X5279705Y-15995888D02*
X5270182Y-16014936D01*
X5270182Y-16014936D02*
X5260658Y-16024460D01*
X5260658Y-16024460D02*
X5241610Y-16033984D01*
X5241610Y-16033984D02*
X5222563Y-16033984D01*
X5222563Y-16033984D02*
X5203515Y-16024460D01*
X5203515Y-16024460D02*
X5193991Y-16014936D01*
X5193991Y-16014936D02*
X5184467Y-15995888D01*
X5184467Y-15995888D02*
X5174944Y-15957793D01*
X5174944Y-15957793D02*
X5174944Y-15910174D01*
X5174944Y-15910174D02*
X5184467Y-15872079D01*
X5184467Y-15872079D02*
X5193991Y-15853031D01*
X5193991Y-15853031D02*
X5203515Y-15843508D01*
X5203515Y-15843508D02*
X5222563Y-15833984D01*
X5413039Y-15833984D02*
X5432086Y-15833984D01*
X5432086Y-15833984D02*
X5451134Y-15843508D01*
X5451134Y-15843508D02*
X5460658Y-15853031D01*
X5460658Y-15853031D02*
X5470182Y-15872079D01*
X5470182Y-15872079D02*
X5479705Y-15910174D01*
X5479705Y-15910174D02*
X5479705Y-15957793D01*
X5479705Y-15957793D02*
X5470182Y-15995888D01*
X5470182Y-15995888D02*
X5460658Y-16014936D01*
X5460658Y-16014936D02*
X5451134Y-16024460D01*
X5451134Y-16024460D02*
X5432086Y-16033984D01*
X5432086Y-16033984D02*
X5413039Y-16033984D01*
X5413039Y-16033984D02*
X5393991Y-16024460D01*
X5393991Y-16024460D02*
X5384467Y-16014936D01*
X5384467Y-16014936D02*
X5374944Y-15995888D01*
X5374944Y-15995888D02*
X5365420Y-15957793D01*
X5365420Y-15957793D02*
X5365420Y-15910174D01*
X5365420Y-15910174D02*
X5374944Y-15872079D01*
X5374944Y-15872079D02*
X5384467Y-15853031D01*
X5384467Y-15853031D02*
X5393991Y-15843508D01*
X5393991Y-15843508D02*
X5413039Y-15833984D01*
X5565420Y-16033984D02*
X5565420Y-15900650D01*
X5565420Y-15919698D02*
X5574944Y-15910174D01*
X5574944Y-15910174D02*
X5593991Y-15900650D01*
X5593991Y-15900650D02*
X5622563Y-15900650D01*
X5622563Y-15900650D02*
X5641610Y-15910174D01*
X5641610Y-15910174D02*
X5651134Y-15929222D01*
X5651134Y-15929222D02*
X5651134Y-16033984D01*
X5651134Y-15929222D02*
X5660658Y-15910174D01*
X5660658Y-15910174D02*
X5679705Y-15900650D01*
X5679705Y-15900650D02*
X5708277Y-15900650D01*
X5708277Y-15900650D02*
X5727324Y-15910174D01*
X5727324Y-15910174D02*
X5736848Y-15929222D01*
X5736848Y-15929222D02*
X5736848Y-16033984D01*
X5832086Y-16033984D02*
X5832086Y-15900650D01*
X5832086Y-15919698D02*
X5841610Y-15910174D01*
X5841610Y-15910174D02*
X5860658Y-15900650D01*
X5860658Y-15900650D02*
X5889229Y-15900650D01*
X5889229Y-15900650D02*
X5908277Y-15910174D01*
X5908277Y-15910174D02*
X5917801Y-15929222D01*
X5917801Y-15929222D02*
X5917801Y-16033984D01*
X5917801Y-15929222D02*
X5927324Y-15910174D01*
X5927324Y-15910174D02*
X5946372Y-15900650D01*
X5946372Y-15900650D02*
X5974943Y-15900650D01*
X5974943Y-15900650D02*
X5993991Y-15910174D01*
X5993991Y-15910174D02*
X6003515Y-15929222D01*
X6003515Y-15929222D02*
X6003515Y-16033984D01*
X6393991Y-15824460D02*
X6222563Y-16081603D01*
X6651134Y-15833984D02*
X6670182Y-15833984D01*
X6670182Y-15833984D02*
X6689229Y-15843508D01*
X6689229Y-15843508D02*
X6698753Y-15853031D01*
X6698753Y-15853031D02*
X6708277Y-15872079D01*
X6708277Y-15872079D02*
X6717801Y-15910174D01*
X6717801Y-15910174D02*
X6717801Y-15957793D01*
X6717801Y-15957793D02*
X6708277Y-15995888D01*
X6708277Y-15995888D02*
X6698753Y-16014936D01*
X6698753Y-16014936D02*
X6689229Y-16024460D01*
X6689229Y-16024460D02*
X6670182Y-16033984D01*
X6670182Y-16033984D02*
X6651134Y-16033984D01*
X6651134Y-16033984D02*
X6632086Y-16024460D01*
X6632086Y-16024460D02*
X6622563Y-16014936D01*
X6622563Y-16014936D02*
X6613039Y-15995888D01*
X6613039Y-15995888D02*
X6603515Y-15957793D01*
X6603515Y-15957793D02*
X6603515Y-15910174D01*
X6603515Y-15910174D02*
X6613039Y-15872079D01*
X6613039Y-15872079D02*
X6622563Y-15853031D01*
X6622563Y-15853031D02*
X6632086Y-15843508D01*
X6632086Y-15843508D02*
X6651134Y-15833984D01*
X6803515Y-16014936D02*
X6813039Y-16024460D01*
X6813039Y-16024460D02*
X6803515Y-16033984D01*
X6803515Y-16033984D02*
X6793991Y-16024460D01*
X6793991Y-16024460D02*
X6803515Y-16014936D01*
X6803515Y-16014936D02*
X6803515Y-16033984D01*
X6936848Y-15833984D02*
X6955896Y-15833984D01*
X6955896Y-15833984D02*
X6974944Y-15843508D01*
X6974944Y-15843508D02*
X6984467Y-15853031D01*
X6984467Y-15853031D02*
X6993991Y-15872079D01*
X6993991Y-15872079D02*
X7003515Y-15910174D01*
X7003515Y-15910174D02*
X7003515Y-15957793D01*
X7003515Y-15957793D02*
X6993991Y-15995888D01*
X6993991Y-15995888D02*
X6984467Y-16014936D01*
X6984467Y-16014936D02*
X6974944Y-16024460D01*
X6974944Y-16024460D02*
X6955896Y-16033984D01*
X6955896Y-16033984D02*
X6936848Y-16033984D01*
X6936848Y-16033984D02*
X6917801Y-16024460D01*
X6917801Y-16024460D02*
X6908277Y-16014936D01*
X6908277Y-16014936D02*
X6898753Y-15995888D01*
X6898753Y-15995888D02*
X6889229Y-15957793D01*
X6889229Y-15957793D02*
X6889229Y-15910174D01*
X6889229Y-15910174D02*
X6898753Y-15872079D01*
X6898753Y-15872079D02*
X6908277Y-15853031D01*
X6908277Y-15853031D02*
X6917801Y-15843508D01*
X6917801Y-15843508D02*
X6936848Y-15833984D01*
X7117801Y-15919698D02*
X7098753Y-15910174D01*
X7098753Y-15910174D02*
X7089229Y-15900650D01*
X7089229Y-15900650D02*
X7079706Y-15881603D01*
X7079706Y-15881603D02*
X7079706Y-15872079D01*
X7079706Y-15872079D02*
X7089229Y-15853031D01*
X7089229Y-15853031D02*
X7098753Y-15843508D01*
X7098753Y-15843508D02*
X7117801Y-15833984D01*
X7117801Y-15833984D02*
X7155896Y-15833984D01*
X7155896Y-15833984D02*
X7174944Y-15843508D01*
X7174944Y-15843508D02*
X7184467Y-15853031D01*
X7184467Y-15853031D02*
X7193991Y-15872079D01*
X7193991Y-15872079D02*
X7193991Y-15881603D01*
X7193991Y-15881603D02*
X7184467Y-15900650D01*
X7184467Y-15900650D02*
X7174944Y-15910174D01*
X7174944Y-15910174D02*
X7155896Y-15919698D01*
X7155896Y-15919698D02*
X7117801Y-15919698D01*
X7117801Y-15919698D02*
X7098753Y-15929222D01*
X7098753Y-15929222D02*
X7089229Y-15938746D01*
X7089229Y-15938746D02*
X7079706Y-15957793D01*
X7079706Y-15957793D02*
X7079706Y-15995888D01*
X7079706Y-15995888D02*
X7089229Y-16014936D01*
X7089229Y-16014936D02*
X7098753Y-16024460D01*
X7098753Y-16024460D02*
X7117801Y-16033984D01*
X7117801Y-16033984D02*
X7155896Y-16033984D01*
X7155896Y-16033984D02*
X7174944Y-16024460D01*
X7174944Y-16024460D02*
X7184467Y-16014936D01*
X7184467Y-16014936D02*
X7193991Y-15995888D01*
X7193991Y-15995888D02*
X7193991Y-15957793D01*
X7193991Y-15957793D02*
X7184467Y-15938746D01*
X7184467Y-15938746D02*
X7174944Y-15929222D01*
X7174944Y-15929222D02*
X7155896Y-15919698D01*
X7365420Y-15833984D02*
X7327325Y-15833984D01*
X7327325Y-15833984D02*
X7308277Y-15843508D01*
X7308277Y-15843508D02*
X7298753Y-15853031D01*
X7298753Y-15853031D02*
X7279706Y-15881603D01*
X7279706Y-15881603D02*
X7270182Y-15919698D01*
X7270182Y-15919698D02*
X7270182Y-15995888D01*
X7270182Y-15995888D02*
X7279706Y-16014936D01*
X7279706Y-16014936D02*
X7289229Y-16024460D01*
X7289229Y-16024460D02*
X7308277Y-16033984D01*
X7308277Y-16033984D02*
X7346372Y-16033984D01*
X7346372Y-16033984D02*
X7365420Y-16024460D01*
X7365420Y-16024460D02*
X7374944Y-16014936D01*
X7374944Y-16014936D02*
X7384467Y-15995888D01*
X7384467Y-15995888D02*
X7384467Y-15948269D01*
X7384467Y-15948269D02*
X7374944Y-15929222D01*
X7374944Y-15929222D02*
X7365420Y-15919698D01*
X7365420Y-15919698D02*
X7346372Y-15910174D01*
X7346372Y-15910174D02*
X7308277Y-15910174D01*
X7308277Y-15910174D02*
X7289229Y-15919698D01*
X7289229Y-15919698D02*
X7279706Y-15929222D01*
X7279706Y-15929222D02*
X7270182Y-15948269D01*
X7555896Y-15833984D02*
X7517801Y-15833984D01*
X7517801Y-15833984D02*
X7498753Y-15843508D01*
X7498753Y-15843508D02*
X7489229Y-15853031D01*
X7489229Y-15853031D02*
X7470182Y-15881603D01*
X7470182Y-15881603D02*
X7460658Y-15919698D01*
X7460658Y-15919698D02*
X7460658Y-15995888D01*
X7460658Y-15995888D02*
X7470182Y-16014936D01*
X7470182Y-16014936D02*
X7479706Y-16024460D01*
X7479706Y-16024460D02*
X7498753Y-16033984D01*
X7498753Y-16033984D02*
X7536848Y-16033984D01*
X7536848Y-16033984D02*
X7555896Y-16024460D01*
X7555896Y-16024460D02*
X7565420Y-16014936D01*
X7565420Y-16014936D02*
X7574944Y-15995888D01*
X7574944Y-15995888D02*
X7574944Y-15948269D01*
X7574944Y-15948269D02*
X7565420Y-15929222D01*
X7565420Y-15929222D02*
X7555896Y-15919698D01*
X7555896Y-15919698D02*
X7536848Y-15910174D01*
X7536848Y-15910174D02*
X7498753Y-15910174D01*
X7498753Y-15910174D02*
X7479706Y-15919698D01*
X7479706Y-15919698D02*
X7470182Y-15929222D01*
X7470182Y-15929222D02*
X7460658Y-15948269D01*
X7651134Y-15833984D02*
X7651134Y-15872079D01*
X7727325Y-15833984D02*
X7727325Y-15872079D01*
X8022563Y-16110174D02*
X8013039Y-16100650D01*
X8013039Y-16100650D02*
X7993991Y-16072079D01*
X7993991Y-16072079D02*
X7984468Y-16053031D01*
X7984468Y-16053031D02*
X7974944Y-16024460D01*
X7974944Y-16024460D02*
X7965420Y-15976841D01*
X7965420Y-15976841D02*
X7965420Y-15938746D01*
X7965420Y-15938746D02*
X7974944Y-15891127D01*
X7974944Y-15891127D02*
X7984468Y-15862555D01*
X7984468Y-15862555D02*
X7993991Y-15843508D01*
X7993991Y-15843508D02*
X8013039Y-15814936D01*
X8013039Y-15814936D02*
X8022563Y-15805412D01*
X8184468Y-15900650D02*
X8184468Y-16033984D01*
X8136848Y-15824460D02*
X8089229Y-15967317D01*
X8089229Y-15967317D02*
X8213039Y-15967317D01*
X8441611Y-16033984D02*
X8441611Y-15833984D01*
X8527325Y-16033984D02*
X8527325Y-15929222D01*
X8527325Y-15929222D02*
X8517801Y-15910174D01*
X8517801Y-15910174D02*
X8498753Y-15900650D01*
X8498753Y-15900650D02*
X8470182Y-15900650D01*
X8470182Y-15900650D02*
X8451134Y-15910174D01*
X8451134Y-15910174D02*
X8441611Y-15919698D01*
X8651134Y-16033984D02*
X8632087Y-16024460D01*
X8632087Y-16024460D02*
X8622563Y-16014936D01*
X8622563Y-16014936D02*
X8613039Y-15995888D01*
X8613039Y-15995888D02*
X8613039Y-15938746D01*
X8613039Y-15938746D02*
X8622563Y-15919698D01*
X8622563Y-15919698D02*
X8632087Y-15910174D01*
X8632087Y-15910174D02*
X8651134Y-15900650D01*
X8651134Y-15900650D02*
X8679706Y-15900650D01*
X8679706Y-15900650D02*
X8698753Y-15910174D01*
X8698753Y-15910174D02*
X8708277Y-15919698D01*
X8708277Y-15919698D02*
X8717801Y-15938746D01*
X8717801Y-15938746D02*
X8717801Y-15995888D01*
X8717801Y-15995888D02*
X8708277Y-16014936D01*
X8708277Y-16014936D02*
X8698753Y-16024460D01*
X8698753Y-16024460D02*
X8679706Y-16033984D01*
X8679706Y-16033984D02*
X8651134Y-16033984D01*
X8832087Y-16033984D02*
X8813039Y-16024460D01*
X8813039Y-16024460D02*
X8803515Y-16005412D01*
X8803515Y-16005412D02*
X8803515Y-15833984D01*
X8984468Y-16024460D02*
X8965420Y-16033984D01*
X8965420Y-16033984D02*
X8927325Y-16033984D01*
X8927325Y-16033984D02*
X8908277Y-16024460D01*
X8908277Y-16024460D02*
X8898753Y-16005412D01*
X8898753Y-16005412D02*
X8898753Y-15929222D01*
X8898753Y-15929222D02*
X8908277Y-15910174D01*
X8908277Y-15910174D02*
X8927325Y-15900650D01*
X8927325Y-15900650D02*
X8965420Y-15900650D01*
X8965420Y-15900650D02*
X8984468Y-15910174D01*
X8984468Y-15910174D02*
X8993992Y-15929222D01*
X8993992Y-15929222D02*
X8993992Y-15948269D01*
X8993992Y-15948269D02*
X8898753Y-15967317D01*
X9070182Y-16024460D02*
X9089230Y-16033984D01*
X9089230Y-16033984D02*
X9127325Y-16033984D01*
X9127325Y-16033984D02*
X9146373Y-16024460D01*
X9146373Y-16024460D02*
X9155896Y-16005412D01*
X9155896Y-16005412D02*
X9155896Y-15995888D01*
X9155896Y-15995888D02*
X9146373Y-15976841D01*
X9146373Y-15976841D02*
X9127325Y-15967317D01*
X9127325Y-15967317D02*
X9098753Y-15967317D01*
X9098753Y-15967317D02*
X9079706Y-15957793D01*
X9079706Y-15957793D02*
X9070182Y-15938746D01*
X9070182Y-15938746D02*
X9070182Y-15929222D01*
X9070182Y-15929222D02*
X9079706Y-15910174D01*
X9079706Y-15910174D02*
X9098753Y-15900650D01*
X9098753Y-15900650D02*
X9127325Y-15900650D01*
X9127325Y-15900650D02*
X9146373Y-15910174D01*
X9222563Y-16110174D02*
X9232087Y-16100650D01*
X9232087Y-16100650D02*
X9251134Y-16072079D01*
X9251134Y-16072079D02*
X9260658Y-16053031D01*
X9260658Y-16053031D02*
X9270182Y-16024460D01*
X9270182Y-16024460D02*
X9279706Y-15976841D01*
X9279706Y-15976841D02*
X9279706Y-15938746D01*
X9279706Y-15938746D02*
X9270182Y-15891127D01*
X9270182Y-15891127D02*
X9260658Y-15862555D01*
X9260658Y-15862555D02*
X9251134Y-15843508D01*
X9251134Y-15843508D02*
X9232087Y-15814936D01*
X9232087Y-15814936D02*
X9222563Y-15805412D01*
X9584468Y-16110174D02*
X9574944Y-16100650D01*
X9574944Y-16100650D02*
X9555896Y-16072079D01*
X9555896Y-16072079D02*
X9546373Y-16053031D01*
X9546373Y-16053031D02*
X9536849Y-16024460D01*
X9536849Y-16024460D02*
X9527325Y-15976841D01*
X9527325Y-15976841D02*
X9527325Y-15938746D01*
X9527325Y-15938746D02*
X9536849Y-15891127D01*
X9536849Y-15891127D02*
X9546373Y-15862555D01*
X9546373Y-15862555D02*
X9555896Y-15843508D01*
X9555896Y-15843508D02*
X9574944Y-15814936D01*
X9574944Y-15814936D02*
X9584468Y-15805412D01*
X9660658Y-15900650D02*
X9660658Y-16033984D01*
X9660658Y-15919698D02*
X9670182Y-15910174D01*
X9670182Y-15910174D02*
X9689230Y-15900650D01*
X9689230Y-15900650D02*
X9717801Y-15900650D01*
X9717801Y-15900650D02*
X9736849Y-15910174D01*
X9736849Y-15910174D02*
X9746373Y-15929222D01*
X9746373Y-15929222D02*
X9746373Y-16033984D01*
X9870182Y-16033984D02*
X9851134Y-16024460D01*
X9851134Y-16024460D02*
X9841611Y-16014936D01*
X9841611Y-16014936D02*
X9832087Y-15995888D01*
X9832087Y-15995888D02*
X9832087Y-15938746D01*
X9832087Y-15938746D02*
X9841611Y-15919698D01*
X9841611Y-15919698D02*
X9851134Y-15910174D01*
X9851134Y-15910174D02*
X9870182Y-15900650D01*
X9870182Y-15900650D02*
X9898754Y-15900650D01*
X9898754Y-15900650D02*
X9917801Y-15910174D01*
X9917801Y-15910174D02*
X9927325Y-15919698D01*
X9927325Y-15919698D02*
X9936849Y-15938746D01*
X9936849Y-15938746D02*
X9936849Y-15995888D01*
X9936849Y-15995888D02*
X9927325Y-16014936D01*
X9927325Y-16014936D02*
X9917801Y-16024460D01*
X9917801Y-16024460D02*
X9898754Y-16033984D01*
X9898754Y-16033984D02*
X9870182Y-16033984D01*
X9993992Y-15900650D02*
X10070182Y-15900650D01*
X10022563Y-15833984D02*
X10022563Y-16005412D01*
X10022563Y-16005412D02*
X10032087Y-16024460D01*
X10032087Y-16024460D02*
X10051134Y-16033984D01*
X10051134Y-16033984D02*
X10070182Y-16033984D01*
X10289230Y-15900650D02*
X10289230Y-16100650D01*
X10289230Y-15910174D02*
X10308277Y-15900650D01*
X10308277Y-15900650D02*
X10346373Y-15900650D01*
X10346373Y-15900650D02*
X10365420Y-15910174D01*
X10365420Y-15910174D02*
X10374944Y-15919698D01*
X10374944Y-15919698D02*
X10384468Y-15938746D01*
X10384468Y-15938746D02*
X10384468Y-15995888D01*
X10384468Y-15995888D02*
X10374944Y-16014936D01*
X10374944Y-16014936D02*
X10365420Y-16024460D01*
X10365420Y-16024460D02*
X10346373Y-16033984D01*
X10346373Y-16033984D02*
X10308277Y-16033984D01*
X10308277Y-16033984D02*
X10289230Y-16024460D01*
X10498754Y-16033984D02*
X10479706Y-16024460D01*
X10479706Y-16024460D02*
X10470182Y-16005412D01*
X10470182Y-16005412D02*
X10470182Y-15833984D01*
X10660658Y-16033984D02*
X10660658Y-15929222D01*
X10660658Y-15929222D02*
X10651135Y-15910174D01*
X10651135Y-15910174D02*
X10632087Y-15900650D01*
X10632087Y-15900650D02*
X10593992Y-15900650D01*
X10593992Y-15900650D02*
X10574944Y-15910174D01*
X10660658Y-16024460D02*
X10641611Y-16033984D01*
X10641611Y-16033984D02*
X10593992Y-16033984D01*
X10593992Y-16033984D02*
X10574944Y-16024460D01*
X10574944Y-16024460D02*
X10565420Y-16005412D01*
X10565420Y-16005412D02*
X10565420Y-15986365D01*
X10565420Y-15986365D02*
X10574944Y-15967317D01*
X10574944Y-15967317D02*
X10593992Y-15957793D01*
X10593992Y-15957793D02*
X10641611Y-15957793D01*
X10641611Y-15957793D02*
X10660658Y-15948269D01*
X10727325Y-15900650D02*
X10803515Y-15900650D01*
X10755896Y-15833984D02*
X10755896Y-16005412D01*
X10755896Y-16005412D02*
X10765420Y-16024460D01*
X10765420Y-16024460D02*
X10784468Y-16033984D01*
X10784468Y-16033984D02*
X10803515Y-16033984D01*
X10946373Y-16024460D02*
X10927325Y-16033984D01*
X10927325Y-16033984D02*
X10889230Y-16033984D01*
X10889230Y-16033984D02*
X10870182Y-16024460D01*
X10870182Y-16024460D02*
X10860658Y-16005412D01*
X10860658Y-16005412D02*
X10860658Y-15929222D01*
X10860658Y-15929222D02*
X10870182Y-15910174D01*
X10870182Y-15910174D02*
X10889230Y-15900650D01*
X10889230Y-15900650D02*
X10927325Y-15900650D01*
X10927325Y-15900650D02*
X10946373Y-15910174D01*
X10946373Y-15910174D02*
X10955896Y-15929222D01*
X10955896Y-15929222D02*
X10955896Y-15948269D01*
X10955896Y-15948269D02*
X10860658Y-15967317D01*
X11127325Y-16033984D02*
X11127325Y-15833984D01*
X11127325Y-16024460D02*
X11108277Y-16033984D01*
X11108277Y-16033984D02*
X11070182Y-16033984D01*
X11070182Y-16033984D02*
X11051135Y-16024460D01*
X11051135Y-16024460D02*
X11041611Y-16014936D01*
X11041611Y-16014936D02*
X11032087Y-15995888D01*
X11032087Y-15995888D02*
X11032087Y-15938746D01*
X11032087Y-15938746D02*
X11041611Y-15919698D01*
X11041611Y-15919698D02*
X11051135Y-15910174D01*
X11051135Y-15910174D02*
X11070182Y-15900650D01*
X11070182Y-15900650D02*
X11108277Y-15900650D01*
X11108277Y-15900650D02*
X11127325Y-15910174D01*
X11203515Y-16110174D02*
X11213039Y-16100650D01*
X11213039Y-16100650D02*
X11232087Y-16072079D01*
X11232087Y-16072079D02*
X11241611Y-16053031D01*
X11241611Y-16053031D02*
X11251134Y-16024460D01*
X11251134Y-16024460D02*
X11260658Y-15976841D01*
X11260658Y-15976841D02*
X11260658Y-15938746D01*
X11260658Y-15938746D02*
X11251134Y-15891127D01*
X11251134Y-15891127D02*
X11241611Y-15862555D01*
X11241611Y-15862555D02*
X11232087Y-15843508D01*
X11232087Y-15843508D02*
X11213039Y-15814936D01*
X11213039Y-15814936D02*
X11203515Y-15805412D01*
M02*
