M48
; DRILL file KiCad 10.0.6 date 2026-09-14T21:57:41
; FORMAT={-:-/ absolute / metric / decimal}
; #@! TF.CreationDate,2026-09-14T21:57:41+08:00
; #@! TF.GenerationSoftware,Kicad,Pcbnew,10.0.6
; #@! TF.FileFunction,Plated,1,2,PTH
FMAT,2
METRIC
; #@! TA.AperFunction,Plated,PTH,ViaDrill
T1C0.300
; #@! TA.AperFunction,Plated,PTH,ComponentDrill
T2C0.800
; #@! TA.AperFunction,Plated,PTH,ComponentDrill
T3C0.900
; #@! TA.AperFunction,Plated,PTH,ComponentDrill
T4C1.000
; #@! TA.AperFunction,Plated,PTH,ComponentDrill
T5C1.100
; #@! TA.AperFunction,Plated,PTH,ComponentDrill
T6C1.500
%
G90
G05
T1
X57.0Y-110.5
X61.0Y-130.0
X65.5Y-121.0
X68.0Y-119.0
X72.5Y-128.0
X73.0Y-116.5
X77.0Y-113.0
X81.5Y-117.0
X82.0Y-101.5
X83.0Y-118.5
X84.0Y-99.0
X95.0Y-135.0
T2
X101.5Y-92.5
X101.5Y-102.66
X101.5Y-106.5
X101.5Y-116.66
T3
X108.96Y-98.5
X108.96Y-108.0
X111.5Y-98.5
X111.5Y-108.0
T4
X59.88Y-115.0
X60.0Y-135.0
X60.0Y-137.5
X60.0Y-140.0
X62.42Y-115.0
X64.96Y-115.0
X67.5Y-115.0
X74.5Y-135.0
X74.5Y-140.0
X80.39Y-92.26
X82.93Y-92.26
X85.47Y-92.26
X88.01Y-92.26
T5
X86.5Y-134.95
X86.5Y-139.45
X93.0Y-134.95
X93.0Y-139.45
X96.0Y-127.5
X96.0Y-132.0
X96.0Y-142.5
X96.0Y-147.0
X102.5Y-127.5
X102.5Y-132.0
X102.5Y-142.5
X102.5Y-147.0
X105.5Y-135.0
X105.5Y-139.5
X112.0Y-135.0
X112.0Y-139.5
T6
G00X66.85Y-131.9
M15
G01X68.15Y-131.9
M16
G05
G00X66.85Y-143.1
M15
G01X68.15Y-143.1
M16
G05
M30
