%TF.GenerationSoftware,KiCad,Pcbnew,10.0.6*%
%TF.CreationDate,2026-09-14T21:58:20+08:00*%
%TF.ProjectId,V-Power,562d506f-7765-4722-9e6b-696361645f70,rev?*%
%TF.SameCoordinates,Original*%
%TF.FileFunction,Soldermask,Top*%
%TF.FilePolarity,Negative*%
%FSLAX46Y46*%
G04 Gerber Fmt 4.6, Leading zero omitted, Abs format (unit mm)*
G04 Created by KiCad (PCBNEW 10.0.6) date 2026-09-14 21:58:20*
%MOMM*%
%LPD*%
G01*
G04 APERTURE LIST*
%ADD10C,2.200000*%
%ADD11C,2.000000*%
%ADD12O,1.600000X2.000000*%
%ADD13R,1.800000X1.800000*%
%ADD14C,1.800000*%
%ADD15C,1.500000*%
%ADD16R,2.000000X2.000000*%
%ADD17R,3.200000X2.000000*%
%ADD18R,1.700000X1.700000*%
%ADD19C,1.700000*%
%ADD20C,1.600000*%
G04 APERTURE END LIST*
D10*
%TO.C,H2*%
X50000000Y-147500000D03*
%TD*%
%TO.C,H3*%
X117500000Y-147500000D03*
%TD*%
%TO.C,H1*%
X50000000Y-94000000D03*
%TD*%
D11*
%TO.C,SW2*%
X86500000Y-134950000D03*
X93000000Y-134950000D03*
X86500000Y-139450000D03*
X93000000Y-139450000D03*
%TD*%
D10*
%TO.C,H4*%
X117500000Y-94000000D03*
%TD*%
D11*
%TO.C,SW1*%
X96000000Y-127500000D03*
X102500000Y-127500000D03*
X96000000Y-132000000D03*
X102500000Y-132000000D03*
%TD*%
D12*
%TO.C,J1-OLED1*%
X80390000Y-92260000D03*
X82930000Y-92260000D03*
X85470000Y-92260000D03*
X88010000Y-92260000D03*
%TD*%
D11*
%TO.C,SW3*%
X105500000Y-135000000D03*
X112000000Y-135000000D03*
X105500000Y-139500000D03*
X112000000Y-139500000D03*
%TD*%
D13*
%TO.C,D2*%
X111500000Y-108000000D03*
D14*
X108960000Y-108000000D03*
%TD*%
D15*
%TO.C,SW4*%
X74500000Y-135000000D03*
X74500000Y-140000000D03*
D16*
X60000000Y-135000000D03*
D11*
X60000000Y-140000000D03*
X60000000Y-137500000D03*
D17*
X67500000Y-131900000D03*
X67500000Y-143100000D03*
%TD*%
D11*
%TO.C,SW5*%
X96000000Y-142500000D03*
X102500000Y-142500000D03*
X96000000Y-147000000D03*
X102500000Y-147000000D03*
%TD*%
D13*
%TO.C,D1*%
X111500000Y-98500000D03*
D14*
X108960000Y-98500000D03*
%TD*%
D18*
%TO.C,J2-MAX1*%
X59880000Y-115000000D03*
D19*
X62420000Y-115000000D03*
X64960000Y-115000000D03*
X67500000Y-115000000D03*
%TD*%
D20*
%TO.C,R1*%
X101500000Y-92500000D03*
X101500000Y-102660000D03*
%TD*%
%TO.C,R2*%
X101500000Y-106500000D03*
X101500000Y-116660000D03*
%TD*%
M02*
