%TF.GenerationSoftware,KiCad,Pcbnew,10.0.6*%
%TF.CreationDate,2026-09-14T21:57:41+08:00*%
%TF.ProjectId,V-Power,562d506f-7765-4722-9e6b-696361645f70,rev?*%
%TF.SameCoordinates,Original*%
%TF.FileFunction,Drillmap*%
%TF.FilePolarity,Positive*%
%FSLAX45Y45*%
G04 Gerber Fmt 4.5, Leading zero omitted, Abs format (unit mm)*
G04 Created by KiCad (PCBNEW 10.0.6) date 2026-09-14 21:57:41*
%MOMM*%
%LPD*%
G01*
G04 APERTURE LIST*
%ADD10C,0.050000*%
%ADD11C,0.200000*%
%ADD12C,0.100000*%
%ADD13C,0.110000*%
%ADD14C,0.150000*%
G04 APERTURE END LIST*
D10*
X4450000Y-9400000D02*
X4450000Y-14500000D01*
X4450000Y-9400000D02*
G75*
G02*
X5000000Y-8850000I550000J0D01*
G01*
X4450000Y-14500000D02*
X4450000Y-14750000D01*
X5000000Y-8850000D02*
X11750000Y-8850000D01*
X5000000Y-15300000D02*
G75*
G02*
X4450000Y-14750000I0J550000D01*
G01*
X5500000Y-15300000D02*
X5000000Y-15300000D01*
X11750000Y-8850000D02*
G75*
G02*
X12300000Y-9400000I0J-550000D01*
G01*
X11750000Y-15300000D02*
X5500000Y-15300000D01*
X12300000Y-9400000D02*
X12300000Y-14750000D01*
X12300000Y-14750000D02*
G75*
G02*
X11750000Y-15300000I-550000J0D01*
G01*
D11*
D12*
X5685000Y-11035000D02*
X5715000Y-11065000D01*
X5715000Y-11035000D02*
X5685000Y-11065000D01*
X6085000Y-12985000D02*
X6115000Y-13015000D01*
X6115000Y-12985000D02*
X6085000Y-13015000D01*
X6535000Y-12085000D02*
X6565000Y-12115000D01*
X6565000Y-12085000D02*
X6535000Y-12115000D01*
X6785000Y-11885000D02*
X6815000Y-11915000D01*
X6815000Y-11885000D02*
X6785000Y-11915000D01*
X7235000Y-12785000D02*
X7265000Y-12815000D01*
X7265000Y-12785000D02*
X7235000Y-12815000D01*
X7285000Y-11635000D02*
X7315000Y-11665000D01*
X7315000Y-11635000D02*
X7285000Y-11665000D01*
X7685000Y-11285000D02*
X7715000Y-11315000D01*
X7715000Y-11285000D02*
X7685000Y-11315000D01*
X8135000Y-11685000D02*
X8165000Y-11715000D01*
X8165000Y-11685000D02*
X8135000Y-11715000D01*
X8185000Y-10135000D02*
X8215000Y-10165000D01*
X8215000Y-10135000D02*
X8185000Y-10165000D01*
X8285000Y-11835000D02*
X8315000Y-11865000D01*
X8315000Y-11835000D02*
X8285000Y-11865000D01*
X8385000Y-9885000D02*
X8415000Y-9915000D01*
X8415000Y-9885000D02*
X8385000Y-9915000D01*
X9485000Y-13485000D02*
X9515000Y-13515000D01*
X9515000Y-13485000D02*
X9485000Y-13515000D01*
X10190000Y-9250000D02*
G75*
G02*
X10110000Y-9250000I-40000J0D01*
G01*
X10110000Y-9250000D02*
G75*
G02*
X10190000Y-9250000I40000J0D01*
G01*
X10190000Y-10266000D02*
G75*
G02*
X10110000Y-10266000I-40000J0D01*
G01*
X10110000Y-10266000D02*
G75*
G02*
X10190000Y-10266000I40000J0D01*
G01*
X10190000Y-10650000D02*
G75*
G02*
X10110000Y-10650000I-40000J0D01*
G01*
X10110000Y-10650000D02*
G75*
G02*
X10190000Y-10650000I40000J0D01*
G01*
X10190000Y-11666000D02*
G75*
G02*
X10110000Y-11666000I-40000J0D01*
G01*
X10110000Y-11666000D02*
G75*
G02*
X10190000Y-11666000I40000J0D01*
G01*
X10896000Y-9805000D02*
X10896000Y-9895000D01*
X10851000Y-9850000D02*
X10941000Y-9850000D01*
X10896000Y-10755000D02*
X10896000Y-10845000D01*
X10851000Y-10800000D02*
X10941000Y-10800000D01*
X11150000Y-9805000D02*
X11150000Y-9895000D01*
X11105000Y-9850000D02*
X11195000Y-9850000D01*
X11150000Y-10755000D02*
X11150000Y-10845000D01*
X11105000Y-10800000D02*
X11195000Y-10800000D01*
X6023356Y-11535356D02*
X6023356Y-11464644D01*
X5952644Y-11464644D01*
X5952644Y-11535356D01*
X6023356Y-11535356D01*
X6035356Y-13535356D02*
X6035356Y-13464644D01*
X5964644Y-13464644D01*
X5964644Y-13535356D01*
X6035356Y-13535356D01*
X6035356Y-13785356D02*
X6035356Y-13714644D01*
X5964644Y-13714644D01*
X5964644Y-13785356D01*
X6035356Y-13785356D01*
X6035356Y-14035356D02*
X6035356Y-13964644D01*
X5964644Y-13964644D01*
X5964644Y-14035356D01*
X6035356Y-14035356D01*
X6277356Y-11535356D02*
X6277356Y-11464644D01*
X6206644Y-11464644D01*
X6206644Y-11535356D01*
X6277356Y-11535356D01*
X6531356Y-11535356D02*
X6531356Y-11464644D01*
X6460644Y-11464644D01*
X6460644Y-11535356D01*
X6531356Y-11535356D01*
X6785356Y-11535356D02*
X6785356Y-11464644D01*
X6714644Y-11464644D01*
X6714644Y-11535356D01*
X6785356Y-11535356D01*
X7485356Y-13535356D02*
X7485356Y-13464644D01*
X7414644Y-13464644D01*
X7414644Y-13535356D01*
X7485356Y-13535356D01*
X7485356Y-14035356D02*
X7485356Y-13964644D01*
X7414644Y-13964644D01*
X7414644Y-14035356D01*
X7485356Y-14035356D01*
X8074356Y-9261356D02*
X8074356Y-9190644D01*
X8003644Y-9190644D01*
X8003644Y-9261356D01*
X8074356Y-9261356D01*
X8328356Y-9261356D02*
X8328356Y-9190644D01*
X8257644Y-9190644D01*
X8257644Y-9261356D01*
X8328356Y-9261356D01*
X8582356Y-9261356D02*
X8582356Y-9190644D01*
X8511644Y-9190644D01*
X8511644Y-9261356D01*
X8582356Y-9261356D01*
X8836356Y-9261356D02*
X8836356Y-9190644D01*
X8765644Y-9190644D01*
X8765644Y-9261356D01*
X8836356Y-9261356D01*
D13*
X8650000Y-13550000D02*
X8705000Y-13495000D01*
X8650000Y-13440000D01*
X8595000Y-13495000D01*
X8650000Y-13550000D01*
X8650000Y-14000000D02*
X8705000Y-13945000D01*
X8650000Y-13890000D01*
X8595000Y-13945000D01*
X8650000Y-14000000D01*
X9300000Y-13550000D02*
X9355000Y-13495000D01*
X9300000Y-13440000D01*
X9245000Y-13495000D01*
X9300000Y-13550000D01*
X9300000Y-14000000D02*
X9355000Y-13945000D01*
X9300000Y-13890000D01*
X9245000Y-13945000D01*
X9300000Y-14000000D01*
X9600000Y-12805000D02*
X9655000Y-12750000D01*
X9600000Y-12695000D01*
X9545000Y-12750000D01*
X9600000Y-12805000D01*
X9600000Y-13255000D02*
X9655000Y-13200000D01*
X9600000Y-13145000D01*
X9545000Y-13200000D01*
X9600000Y-13255000D01*
X9600000Y-14305000D02*
X9655000Y-14250000D01*
X9600000Y-14195000D01*
X9545000Y-14250000D01*
X9600000Y-14305000D01*
X9600000Y-14755000D02*
X9655000Y-14700000D01*
X9600000Y-14645000D01*
X9545000Y-14700000D01*
X9600000Y-14755000D01*
X10250000Y-12805000D02*
X10305000Y-12750000D01*
X10250000Y-12695000D01*
X10195000Y-12750000D01*
X10250000Y-12805000D01*
X10250000Y-13255000D02*
X10305000Y-13200000D01*
X10250000Y-13145000D01*
X10195000Y-13200000D01*
X10250000Y-13255000D01*
X10250000Y-14305000D02*
X10305000Y-14250000D01*
X10250000Y-14195000D01*
X10195000Y-14250000D01*
X10250000Y-14305000D01*
X10250000Y-14755000D02*
X10305000Y-14700000D01*
X10250000Y-14645000D01*
X10195000Y-14700000D01*
X10250000Y-14755000D01*
X10550000Y-13555000D02*
X10605000Y-13500000D01*
X10550000Y-13445000D01*
X10495000Y-13500000D01*
X10550000Y-13555000D01*
X10550000Y-14005000D02*
X10605000Y-13950000D01*
X10550000Y-13895000D01*
X10495000Y-13950000D01*
X10550000Y-14005000D01*
X11200000Y-13555000D02*
X11255000Y-13500000D01*
X11200000Y-13445000D01*
X11145000Y-13500000D01*
X11200000Y-13555000D01*
X11200000Y-14005000D02*
X11255000Y-13950000D01*
X11200000Y-13895000D01*
X11145000Y-13950000D01*
X11200000Y-14005000D01*
D14*
X6675000Y-13115000D02*
X6825000Y-13265000D01*
X6825000Y-13115000D02*
X6675000Y-13265000D01*
X6825000Y-13190000D02*
G75*
G02*
X6675000Y-13190000I-75000J0D01*
G01*
X6675000Y-13190000D02*
G75*
G02*
X6825000Y-13190000I75000J0D01*
G01*
D12*
X6685000Y-13265000D02*
X6815000Y-13265000D01*
X6815000Y-13115000D02*
G75*
G02*
X6815000Y-13265000I0J-75000D01*
G01*
X6815000Y-13115000D02*
X6685000Y-13115000D01*
X6685000Y-13115000D02*
G75*
G03*
X6685000Y-13265000I0J-75000D01*
G01*
D14*
X6675000Y-14235000D02*
X6825000Y-14385000D01*
X6825000Y-14235000D02*
X6675000Y-14385000D01*
X6825000Y-14310000D02*
G75*
G02*
X6675000Y-14310000I-75000J0D01*
G01*
X6675000Y-14310000D02*
G75*
G02*
X6825000Y-14310000I75000J0D01*
G01*
D12*
X6685000Y-14385000D02*
X6815000Y-14385000D01*
X6815000Y-14235000D02*
G75*
G02*
X6815000Y-14385000I0J-75000D01*
G01*
X6815000Y-14235000D02*
X6685000Y-14235000D01*
X6685000Y-14235000D02*
G75*
G03*
X6685000Y-14385000I0J-75000D01*
G01*
D11*
X4708277Y-15613984D02*
X4708277Y-15413984D01*
X4708277Y-15413984D02*
X4755896Y-15413984D01*
X4755896Y-15413984D02*
X4784467Y-15423508D01*
X4784467Y-15423508D02*
X4803515Y-15442555D01*
X4803515Y-15442555D02*
X4813039Y-15461603D01*
X4813039Y-15461603D02*
X4822563Y-15499698D01*
X4822563Y-15499698D02*
X4822563Y-15528269D01*
X4822563Y-15528269D02*
X4813039Y-15566365D01*
X4813039Y-15566365D02*
X4803515Y-15585412D01*
X4803515Y-15585412D02*
X4784467Y-15604460D01*
X4784467Y-15604460D02*
X4755896Y-15613984D01*
X4755896Y-15613984D02*
X4708277Y-15613984D01*
X4908277Y-15613984D02*
X4908277Y-15480650D01*
X4908277Y-15518746D02*
X4917801Y-15499698D01*
X4917801Y-15499698D02*
X4927324Y-15490174D01*
X4927324Y-15490174D02*
X4946372Y-15480650D01*
X4946372Y-15480650D02*
X4965420Y-15480650D01*
X5032086Y-15613984D02*
X5032086Y-15480650D01*
X5032086Y-15413984D02*
X5022563Y-15423508D01*
X5022563Y-15423508D02*
X5032086Y-15433031D01*
X5032086Y-15433031D02*
X5041610Y-15423508D01*
X5041610Y-15423508D02*
X5032086Y-15413984D01*
X5032086Y-15413984D02*
X5032086Y-15433031D01*
X5155896Y-15613984D02*
X5136848Y-15604460D01*
X5136848Y-15604460D02*
X5127324Y-15585412D01*
X5127324Y-15585412D02*
X5127324Y-15413984D01*
X5260658Y-15613984D02*
X5241610Y-15604460D01*
X5241610Y-15604460D02*
X5232086Y-15585412D01*
X5232086Y-15585412D02*
X5232086Y-15413984D01*
X5489229Y-15613984D02*
X5489229Y-15413984D01*
X5489229Y-15413984D02*
X5555896Y-15556841D01*
X5555896Y-15556841D02*
X5622562Y-15413984D01*
X5622562Y-15413984D02*
X5622562Y-15613984D01*
X5803515Y-15613984D02*
X5803515Y-15509222D01*
X5803515Y-15509222D02*
X5793991Y-15490174D01*
X5793991Y-15490174D02*
X5774943Y-15480650D01*
X5774943Y-15480650D02*
X5736848Y-15480650D01*
X5736848Y-15480650D02*
X5717801Y-15490174D01*
X5803515Y-15604460D02*
X5784467Y-15613984D01*
X5784467Y-15613984D02*
X5736848Y-15613984D01*
X5736848Y-15613984D02*
X5717801Y-15604460D01*
X5717801Y-15604460D02*
X5708277Y-15585412D01*
X5708277Y-15585412D02*
X5708277Y-15566365D01*
X5708277Y-15566365D02*
X5717801Y-15547317D01*
X5717801Y-15547317D02*
X5736848Y-15537793D01*
X5736848Y-15537793D02*
X5784467Y-15537793D01*
X5784467Y-15537793D02*
X5803515Y-15528269D01*
X5898753Y-15480650D02*
X5898753Y-15680650D01*
X5898753Y-15490174D02*
X5917801Y-15480650D01*
X5917801Y-15480650D02*
X5955896Y-15480650D01*
X5955896Y-15480650D02*
X5974943Y-15490174D01*
X5974943Y-15490174D02*
X5984467Y-15499698D01*
X5984467Y-15499698D02*
X5993991Y-15518746D01*
X5993991Y-15518746D02*
X5993991Y-15575888D01*
X5993991Y-15575888D02*
X5984467Y-15594936D01*
X5984467Y-15594936D02*
X5974943Y-15604460D01*
X5974943Y-15604460D02*
X5955896Y-15613984D01*
X5955896Y-15613984D02*
X5917801Y-15613984D01*
X5917801Y-15613984D02*
X5898753Y-15604460D01*
X6079705Y-15594936D02*
X6089229Y-15604460D01*
X6089229Y-15604460D02*
X6079705Y-15613984D01*
X6079705Y-15613984D02*
X6070182Y-15604460D01*
X6070182Y-15604460D02*
X6079705Y-15594936D01*
X6079705Y-15594936D02*
X6079705Y-15613984D01*
X6079705Y-15490174D02*
X6089229Y-15499698D01*
X6089229Y-15499698D02*
X6079705Y-15509222D01*
X6079705Y-15509222D02*
X6070182Y-15499698D01*
X6070182Y-15499698D02*
X6079705Y-15490174D01*
X6079705Y-15490174D02*
X6079705Y-15509222D01*
D12*
X4417500Y-15927500D02*
X4447500Y-15957500D01*
X4447500Y-15927500D02*
X4417500Y-15957500D01*
D11*
X4746372Y-15833984D02*
X4765420Y-15833984D01*
X4765420Y-15833984D02*
X4784467Y-15843508D01*
X4784467Y-15843508D02*
X4793991Y-15853031D01*
X4793991Y-15853031D02*
X4803515Y-15872079D01*
X4803515Y-15872079D02*
X4813039Y-15910174D01*
X4813039Y-15910174D02*
X4813039Y-15957793D01*
X4813039Y-15957793D02*
X4803515Y-15995888D01*
X4803515Y-15995888D02*
X4793991Y-16014936D01*
X4793991Y-16014936D02*
X4784467Y-16024460D01*
X4784467Y-16024460D02*
X4765420Y-16033984D01*
X4765420Y-16033984D02*
X4746372Y-16033984D01*
X4746372Y-16033984D02*
X4727324Y-16024460D01*
X4727324Y-16024460D02*
X4717801Y-16014936D01*
X4717801Y-16014936D02*
X4708277Y-15995888D01*
X4708277Y-15995888D02*
X4698753Y-15957793D01*
X4698753Y-15957793D02*
X4698753Y-15910174D01*
X4698753Y-15910174D02*
X4708277Y-15872079D01*
X4708277Y-15872079D02*
X4717801Y-15853031D01*
X4717801Y-15853031D02*
X4727324Y-15843508D01*
X4727324Y-15843508D02*
X4746372Y-15833984D01*
X4898753Y-16014936D02*
X4908277Y-16024460D01*
X4908277Y-16024460D02*
X4898753Y-16033984D01*
X4898753Y-16033984D02*
X4889229Y-16024460D01*
X4889229Y-16024460D02*
X4898753Y-16014936D01*
X4898753Y-16014936D02*
X4898753Y-16033984D01*
X4974944Y-15833984D02*
X5098753Y-15833984D01*
X5098753Y-15833984D02*
X5032086Y-15910174D01*
X5032086Y-15910174D02*
X5060658Y-15910174D01*
X5060658Y-15910174D02*
X5079705Y-15919698D01*
X5079705Y-15919698D02*
X5089229Y-15929222D01*
X5089229Y-15929222D02*
X5098753Y-15948269D01*
X5098753Y-15948269D02*
X5098753Y-15995888D01*
X5098753Y-15995888D02*
X5089229Y-16014936D01*
X5089229Y-16014936D02*
X5079705Y-16024460D01*
X5079705Y-16024460D02*
X5060658Y-16033984D01*
X5060658Y-16033984D02*
X5003515Y-16033984D01*
X5003515Y-16033984D02*
X4984467Y-16024460D01*
X4984467Y-16024460D02*
X4974944Y-16014936D01*
X5222563Y-15833984D02*
X5241610Y-15833984D01*
X5241610Y-15833984D02*
X5260658Y-15843508D01*
X5260658Y-15843508D02*
X5270182Y-15853031D01*
X5270182Y-15853031D02*
X5279705Y-15872079D01*
X5279705Y-15872079D02*
X5289229Y-15910174D01*
X5289229Y-15910174D02*
X5289229Y-15957793D01*
X5289229Y-15957793D02*
X5279705Y-15995888D01*
X5279705Y-15995888D02*
X5270182Y-16014936D01*
X5270182Y-16014936D02*
X5260658Y-16024460D01*
X5260658Y-16024460D02*
X5241610Y-16033984D01*
X5241610Y-16033984D02*
X5222563Y-16033984D01*
X5222563Y-16033984D02*
X5203515Y-16024460D01*
X5203515Y-16024460D02*
X5193991Y-16014936D01*
X5193991Y-16014936D02*
X5184467Y-15995888D01*
X5184467Y-15995888D02*
X5174944Y-15957793D01*
X5174944Y-15957793D02*
X5174944Y-15910174D01*
X5174944Y-15910174D02*
X5184467Y-15872079D01*
X5184467Y-15872079D02*
X5193991Y-15853031D01*
X5193991Y-15853031D02*
X5203515Y-15843508D01*
X5203515Y-15843508D02*
X5222563Y-15833984D01*
X5413039Y-15833984D02*
X5432086Y-15833984D01*
X5432086Y-15833984D02*
X5451134Y-15843508D01*
X5451134Y-15843508D02*
X5460658Y-15853031D01*
X5460658Y-15853031D02*
X5470182Y-15872079D01*
X5470182Y-15872079D02*
X5479705Y-15910174D01*
X5479705Y-15910174D02*
X5479705Y-15957793D01*
X5479705Y-15957793D02*
X5470182Y-15995888D01*
X5470182Y-15995888D02*
X5460658Y-16014936D01*
X5460658Y-16014936D02*
X5451134Y-16024460D01*
X5451134Y-16024460D02*
X5432086Y-16033984D01*
X5432086Y-16033984D02*
X5413039Y-16033984D01*
X5413039Y-16033984D02*
X5393991Y-16024460D01*
X5393991Y-16024460D02*
X5384467Y-16014936D01*
X5384467Y-16014936D02*
X5374944Y-15995888D01*
X5374944Y-15995888D02*
X5365420Y-15957793D01*
X5365420Y-15957793D02*
X5365420Y-15910174D01*
X5365420Y-15910174D02*
X5374944Y-15872079D01*
X5374944Y-15872079D02*
X5384467Y-15853031D01*
X5384467Y-15853031D02*
X5393991Y-15843508D01*
X5393991Y-15843508D02*
X5413039Y-15833984D01*
X5565420Y-16033984D02*
X5565420Y-15900650D01*
X5565420Y-15919698D02*
X5574944Y-15910174D01*
X5574944Y-15910174D02*
X5593991Y-15900650D01*
X5593991Y-15900650D02*
X5622563Y-15900650D01*
X5622563Y-15900650D02*
X5641610Y-15910174D01*
X5641610Y-15910174D02*
X5651134Y-15929222D01*
X5651134Y-15929222D02*
X5651134Y-16033984D01*
X5651134Y-15929222D02*
X5660658Y-15910174D01*
X5660658Y-15910174D02*
X5679705Y-15900650D01*
X5679705Y-15900650D02*
X5708277Y-15900650D01*
X5708277Y-15900650D02*
X5727324Y-15910174D01*
X5727324Y-15910174D02*
X5736848Y-15929222D01*
X5736848Y-15929222D02*
X5736848Y-16033984D01*
X5832086Y-16033984D02*
X5832086Y-15900650D01*
X5832086Y-15919698D02*
X5841610Y-15910174D01*
X5841610Y-15910174D02*
X5860658Y-15900650D01*
X5860658Y-15900650D02*
X5889229Y-15900650D01*
X5889229Y-15900650D02*
X5908277Y-15910174D01*
X5908277Y-15910174D02*
X5917801Y-15929222D01*
X5917801Y-15929222D02*
X5917801Y-16033984D01*
X5917801Y-15929222D02*
X5927324Y-15910174D01*
X5927324Y-15910174D02*
X5946372Y-15900650D01*
X5946372Y-15900650D02*
X5974943Y-15900650D01*
X5974943Y-15900650D02*
X5993991Y-15910174D01*
X5993991Y-15910174D02*
X6003515Y-15929222D01*
X6003515Y-15929222D02*
X6003515Y-16033984D01*
X6393991Y-15824460D02*
X6222563Y-16081603D01*
X6651134Y-15833984D02*
X6670182Y-15833984D01*
X6670182Y-15833984D02*
X6689229Y-15843508D01*
X6689229Y-15843508D02*
X6698753Y-15853031D01*
X6698753Y-15853031D02*
X6708277Y-15872079D01*
X6708277Y-15872079D02*
X6717801Y-15910174D01*
X6717801Y-15910174D02*
X6717801Y-15957793D01*
X6717801Y-15957793D02*
X6708277Y-15995888D01*
X6708277Y-15995888D02*
X6698753Y-16014936D01*
X6698753Y-16014936D02*
X6689229Y-16024460D01*
X6689229Y-16024460D02*
X6670182Y-16033984D01*
X6670182Y-16033984D02*
X6651134Y-16033984D01*
X6651134Y-16033984D02*
X6632086Y-16024460D01*
X6632086Y-16024460D02*
X6622563Y-16014936D01*
X6622563Y-16014936D02*
X6613039Y-15995888D01*
X6613039Y-15995888D02*
X6603515Y-15957793D01*
X6603515Y-15957793D02*
X6603515Y-15910174D01*
X6603515Y-15910174D02*
X6613039Y-15872079D01*
X6613039Y-15872079D02*
X6622563Y-15853031D01*
X6622563Y-15853031D02*
X6632086Y-15843508D01*
X6632086Y-15843508D02*
X6651134Y-15833984D01*
X6803515Y-16014936D02*
X6813039Y-16024460D01*
X6813039Y-16024460D02*
X6803515Y-16033984D01*
X6803515Y-16033984D02*
X6793991Y-16024460D01*
X6793991Y-16024460D02*
X6803515Y-16014936D01*
X6803515Y-16014936D02*
X6803515Y-16033984D01*
X6936848Y-15833984D02*
X6955896Y-15833984D01*
X6955896Y-15833984D02*
X6974944Y-15843508D01*
X6974944Y-15843508D02*
X6984467Y-15853031D01*
X6984467Y-15853031D02*
X6993991Y-15872079D01*
X6993991Y-15872079D02*
X7003515Y-15910174D01*
X7003515Y-15910174D02*
X7003515Y-15957793D01*
X7003515Y-15957793D02*
X6993991Y-15995888D01*
X6993991Y-15995888D02*
X6984467Y-16014936D01*
X6984467Y-16014936D02*
X6974944Y-16024460D01*
X6974944Y-16024460D02*
X6955896Y-16033984D01*
X6955896Y-16033984D02*
X6936848Y-16033984D01*
X6936848Y-16033984D02*
X6917801Y-16024460D01*
X6917801Y-16024460D02*
X6908277Y-16014936D01*
X6908277Y-16014936D02*
X6898753Y-15995888D01*
X6898753Y-15995888D02*
X6889229Y-15957793D01*
X6889229Y-15957793D02*
X6889229Y-15910174D01*
X6889229Y-15910174D02*
X6898753Y-15872079D01*
X6898753Y-15872079D02*
X6908277Y-15853031D01*
X6908277Y-15853031D02*
X6917801Y-15843508D01*
X6917801Y-15843508D02*
X6936848Y-15833984D01*
X7193991Y-16033984D02*
X7079706Y-16033984D01*
X7136848Y-16033984D02*
X7136848Y-15833984D01*
X7136848Y-15833984D02*
X7117801Y-15862555D01*
X7117801Y-15862555D02*
X7098753Y-15881603D01*
X7098753Y-15881603D02*
X7079706Y-15891127D01*
X7384467Y-16033984D02*
X7270182Y-16033984D01*
X7327325Y-16033984D02*
X7327325Y-15833984D01*
X7327325Y-15833984D02*
X7308277Y-15862555D01*
X7308277Y-15862555D02*
X7289229Y-15881603D01*
X7289229Y-15881603D02*
X7270182Y-15891127D01*
X7498753Y-15919698D02*
X7479706Y-15910174D01*
X7479706Y-15910174D02*
X7470182Y-15900650D01*
X7470182Y-15900650D02*
X7460658Y-15881603D01*
X7460658Y-15881603D02*
X7460658Y-15872079D01*
X7460658Y-15872079D02*
X7470182Y-15853031D01*
X7470182Y-15853031D02*
X7479706Y-15843508D01*
X7479706Y-15843508D02*
X7498753Y-15833984D01*
X7498753Y-15833984D02*
X7536848Y-15833984D01*
X7536848Y-15833984D02*
X7555896Y-15843508D01*
X7555896Y-15843508D02*
X7565420Y-15853031D01*
X7565420Y-15853031D02*
X7574944Y-15872079D01*
X7574944Y-15872079D02*
X7574944Y-15881603D01*
X7574944Y-15881603D02*
X7565420Y-15900650D01*
X7565420Y-15900650D02*
X7555896Y-15910174D01*
X7555896Y-15910174D02*
X7536848Y-15919698D01*
X7536848Y-15919698D02*
X7498753Y-15919698D01*
X7498753Y-15919698D02*
X7479706Y-15929222D01*
X7479706Y-15929222D02*
X7470182Y-15938746D01*
X7470182Y-15938746D02*
X7460658Y-15957793D01*
X7460658Y-15957793D02*
X7460658Y-15995888D01*
X7460658Y-15995888D02*
X7470182Y-16014936D01*
X7470182Y-16014936D02*
X7479706Y-16024460D01*
X7479706Y-16024460D02*
X7498753Y-16033984D01*
X7498753Y-16033984D02*
X7536848Y-16033984D01*
X7536848Y-16033984D02*
X7555896Y-16024460D01*
X7555896Y-16024460D02*
X7565420Y-16014936D01*
X7565420Y-16014936D02*
X7574944Y-15995888D01*
X7574944Y-15995888D02*
X7574944Y-15957793D01*
X7574944Y-15957793D02*
X7565420Y-15938746D01*
X7565420Y-15938746D02*
X7555896Y-15929222D01*
X7555896Y-15929222D02*
X7536848Y-15919698D01*
X7651134Y-15833984D02*
X7651134Y-15872079D01*
X7727325Y-15833984D02*
X7727325Y-15872079D01*
X8022563Y-16110174D02*
X8013039Y-16100650D01*
X8013039Y-16100650D02*
X7993991Y-16072079D01*
X7993991Y-16072079D02*
X7984468Y-16053031D01*
X7984468Y-16053031D02*
X7974944Y-16024460D01*
X7974944Y-16024460D02*
X7965420Y-15976841D01*
X7965420Y-15976841D02*
X7965420Y-15938746D01*
X7965420Y-15938746D02*
X7974944Y-15891127D01*
X7974944Y-15891127D02*
X7984468Y-15862555D01*
X7984468Y-15862555D02*
X7993991Y-15843508D01*
X7993991Y-15843508D02*
X8013039Y-15814936D01*
X8013039Y-15814936D02*
X8022563Y-15805412D01*
X8203515Y-16033984D02*
X8089229Y-16033984D01*
X8146372Y-16033984D02*
X8146372Y-15833984D01*
X8146372Y-15833984D02*
X8127325Y-15862555D01*
X8127325Y-15862555D02*
X8108277Y-15881603D01*
X8108277Y-15881603D02*
X8089229Y-15891127D01*
X8279706Y-15853031D02*
X8289229Y-15843508D01*
X8289229Y-15843508D02*
X8308277Y-15833984D01*
X8308277Y-15833984D02*
X8355896Y-15833984D01*
X8355896Y-15833984D02*
X8374944Y-15843508D01*
X8374944Y-15843508D02*
X8384468Y-15853031D01*
X8384468Y-15853031D02*
X8393991Y-15872079D01*
X8393991Y-15872079D02*
X8393991Y-15891127D01*
X8393991Y-15891127D02*
X8384468Y-15919698D01*
X8384468Y-15919698D02*
X8270182Y-16033984D01*
X8270182Y-16033984D02*
X8393991Y-16033984D01*
X8632087Y-16033984D02*
X8632087Y-15833984D01*
X8717801Y-16033984D02*
X8717801Y-15929222D01*
X8717801Y-15929222D02*
X8708277Y-15910174D01*
X8708277Y-15910174D02*
X8689230Y-15900650D01*
X8689230Y-15900650D02*
X8660658Y-15900650D01*
X8660658Y-15900650D02*
X8641611Y-15910174D01*
X8641611Y-15910174D02*
X8632087Y-15919698D01*
X8841611Y-16033984D02*
X8822563Y-16024460D01*
X8822563Y-16024460D02*
X8813039Y-16014936D01*
X8813039Y-16014936D02*
X8803515Y-15995888D01*
X8803515Y-15995888D02*
X8803515Y-15938746D01*
X8803515Y-15938746D02*
X8813039Y-15919698D01*
X8813039Y-15919698D02*
X8822563Y-15910174D01*
X8822563Y-15910174D02*
X8841611Y-15900650D01*
X8841611Y-15900650D02*
X8870182Y-15900650D01*
X8870182Y-15900650D02*
X8889230Y-15910174D01*
X8889230Y-15910174D02*
X8898753Y-15919698D01*
X8898753Y-15919698D02*
X8908277Y-15938746D01*
X8908277Y-15938746D02*
X8908277Y-15995888D01*
X8908277Y-15995888D02*
X8898753Y-16014936D01*
X8898753Y-16014936D02*
X8889230Y-16024460D01*
X8889230Y-16024460D02*
X8870182Y-16033984D01*
X8870182Y-16033984D02*
X8841611Y-16033984D01*
X9022563Y-16033984D02*
X9003515Y-16024460D01*
X9003515Y-16024460D02*
X8993992Y-16005412D01*
X8993992Y-16005412D02*
X8993992Y-15833984D01*
X9174944Y-16024460D02*
X9155896Y-16033984D01*
X9155896Y-16033984D02*
X9117801Y-16033984D01*
X9117801Y-16033984D02*
X9098753Y-16024460D01*
X9098753Y-16024460D02*
X9089230Y-16005412D01*
X9089230Y-16005412D02*
X9089230Y-15929222D01*
X9089230Y-15929222D02*
X9098753Y-15910174D01*
X9098753Y-15910174D02*
X9117801Y-15900650D01*
X9117801Y-15900650D02*
X9155896Y-15900650D01*
X9155896Y-15900650D02*
X9174944Y-15910174D01*
X9174944Y-15910174D02*
X9184468Y-15929222D01*
X9184468Y-15929222D02*
X9184468Y-15948269D01*
X9184468Y-15948269D02*
X9089230Y-15967317D01*
X9260658Y-16024460D02*
X9279706Y-16033984D01*
X9279706Y-16033984D02*
X9317801Y-16033984D01*
X9317801Y-16033984D02*
X9336849Y-16024460D01*
X9336849Y-16024460D02*
X9346373Y-16005412D01*
X9346373Y-16005412D02*
X9346373Y-15995888D01*
X9346373Y-15995888D02*
X9336849Y-15976841D01*
X9336849Y-15976841D02*
X9317801Y-15967317D01*
X9317801Y-15967317D02*
X9289230Y-15967317D01*
X9289230Y-15967317D02*
X9270182Y-15957793D01*
X9270182Y-15957793D02*
X9260658Y-15938746D01*
X9260658Y-15938746D02*
X9260658Y-15929222D01*
X9260658Y-15929222D02*
X9270182Y-15910174D01*
X9270182Y-15910174D02*
X9289230Y-15900650D01*
X9289230Y-15900650D02*
X9317801Y-15900650D01*
X9317801Y-15900650D02*
X9336849Y-15910174D01*
X9413039Y-16110174D02*
X9422563Y-16100650D01*
X9422563Y-16100650D02*
X9441611Y-16072079D01*
X9441611Y-16072079D02*
X9451134Y-16053031D01*
X9451134Y-16053031D02*
X9460658Y-16024460D01*
X9460658Y-16024460D02*
X9470182Y-15976841D01*
X9470182Y-15976841D02*
X9470182Y-15938746D01*
X9470182Y-15938746D02*
X9460658Y-15891127D01*
X9460658Y-15891127D02*
X9451134Y-15862555D01*
X9451134Y-15862555D02*
X9441611Y-15843508D01*
X9441611Y-15843508D02*
X9422563Y-15814936D01*
X9422563Y-15814936D02*
X9413039Y-15805412D01*
D12*
X4447500Y-16206500D02*
G75*
G02*
X4367500Y-16206500I-40000J0D01*
G01*
X4367500Y-16206500D02*
G75*
G02*
X4447500Y-16206500I40000J0D01*
G01*
D11*
X4746372Y-16097984D02*
X4765420Y-16097984D01*
X4765420Y-16097984D02*
X4784467Y-16107508D01*
X4784467Y-16107508D02*
X4793991Y-16117031D01*
X4793991Y-16117031D02*
X4803515Y-16136079D01*
X4803515Y-16136079D02*
X4813039Y-16174174D01*
X4813039Y-16174174D02*
X4813039Y-16221793D01*
X4813039Y-16221793D02*
X4803515Y-16259888D01*
X4803515Y-16259888D02*
X4793991Y-16278936D01*
X4793991Y-16278936D02*
X4784467Y-16288460D01*
X4784467Y-16288460D02*
X4765420Y-16297984D01*
X4765420Y-16297984D02*
X4746372Y-16297984D01*
X4746372Y-16297984D02*
X4727324Y-16288460D01*
X4727324Y-16288460D02*
X4717801Y-16278936D01*
X4717801Y-16278936D02*
X4708277Y-16259888D01*
X4708277Y-16259888D02*
X4698753Y-16221793D01*
X4698753Y-16221793D02*
X4698753Y-16174174D01*
X4698753Y-16174174D02*
X4708277Y-16136079D01*
X4708277Y-16136079D02*
X4717801Y-16117031D01*
X4717801Y-16117031D02*
X4727324Y-16107508D01*
X4727324Y-16107508D02*
X4746372Y-16097984D01*
X4898753Y-16278936D02*
X4908277Y-16288460D01*
X4908277Y-16288460D02*
X4898753Y-16297984D01*
X4898753Y-16297984D02*
X4889229Y-16288460D01*
X4889229Y-16288460D02*
X4898753Y-16278936D01*
X4898753Y-16278936D02*
X4898753Y-16297984D01*
X5022563Y-16183698D02*
X5003515Y-16174174D01*
X5003515Y-16174174D02*
X4993991Y-16164650D01*
X4993991Y-16164650D02*
X4984467Y-16145603D01*
X4984467Y-16145603D02*
X4984467Y-16136079D01*
X4984467Y-16136079D02*
X4993991Y-16117031D01*
X4993991Y-16117031D02*
X5003515Y-16107508D01*
X5003515Y-16107508D02*
X5022563Y-16097984D01*
X5022563Y-16097984D02*
X5060658Y-16097984D01*
X5060658Y-16097984D02*
X5079705Y-16107508D01*
X5079705Y-16107508D02*
X5089229Y-16117031D01*
X5089229Y-16117031D02*
X5098753Y-16136079D01*
X5098753Y-16136079D02*
X5098753Y-16145603D01*
X5098753Y-16145603D02*
X5089229Y-16164650D01*
X5089229Y-16164650D02*
X5079705Y-16174174D01*
X5079705Y-16174174D02*
X5060658Y-16183698D01*
X5060658Y-16183698D02*
X5022563Y-16183698D01*
X5022563Y-16183698D02*
X5003515Y-16193222D01*
X5003515Y-16193222D02*
X4993991Y-16202746D01*
X4993991Y-16202746D02*
X4984467Y-16221793D01*
X4984467Y-16221793D02*
X4984467Y-16259888D01*
X4984467Y-16259888D02*
X4993991Y-16278936D01*
X4993991Y-16278936D02*
X5003515Y-16288460D01*
X5003515Y-16288460D02*
X5022563Y-16297984D01*
X5022563Y-16297984D02*
X5060658Y-16297984D01*
X5060658Y-16297984D02*
X5079705Y-16288460D01*
X5079705Y-16288460D02*
X5089229Y-16278936D01*
X5089229Y-16278936D02*
X5098753Y-16259888D01*
X5098753Y-16259888D02*
X5098753Y-16221793D01*
X5098753Y-16221793D02*
X5089229Y-16202746D01*
X5089229Y-16202746D02*
X5079705Y-16193222D01*
X5079705Y-16193222D02*
X5060658Y-16183698D01*
X5222563Y-16097984D02*
X5241610Y-16097984D01*
X5241610Y-16097984D02*
X5260658Y-16107508D01*
X5260658Y-16107508D02*
X5270182Y-16117031D01*
X5270182Y-16117031D02*
X5279705Y-16136079D01*
X5279705Y-16136079D02*
X5289229Y-16174174D01*
X5289229Y-16174174D02*
X5289229Y-16221793D01*
X5289229Y-16221793D02*
X5279705Y-16259888D01*
X5279705Y-16259888D02*
X5270182Y-16278936D01*
X5270182Y-16278936D02*
X5260658Y-16288460D01*
X5260658Y-16288460D02*
X5241610Y-16297984D01*
X5241610Y-16297984D02*
X5222563Y-16297984D01*
X5222563Y-16297984D02*
X5203515Y-16288460D01*
X5203515Y-16288460D02*
X5193991Y-16278936D01*
X5193991Y-16278936D02*
X5184467Y-16259888D01*
X5184467Y-16259888D02*
X5174944Y-16221793D01*
X5174944Y-16221793D02*
X5174944Y-16174174D01*
X5174944Y-16174174D02*
X5184467Y-16136079D01*
X5184467Y-16136079D02*
X5193991Y-16117031D01*
X5193991Y-16117031D02*
X5203515Y-16107508D01*
X5203515Y-16107508D02*
X5222563Y-16097984D01*
X5413039Y-16097984D02*
X5432086Y-16097984D01*
X5432086Y-16097984D02*
X5451134Y-16107508D01*
X5451134Y-16107508D02*
X5460658Y-16117031D01*
X5460658Y-16117031D02*
X5470182Y-16136079D01*
X5470182Y-16136079D02*
X5479705Y-16174174D01*
X5479705Y-16174174D02*
X5479705Y-16221793D01*
X5479705Y-16221793D02*
X5470182Y-16259888D01*
X5470182Y-16259888D02*
X5460658Y-16278936D01*
X5460658Y-16278936D02*
X5451134Y-16288460D01*
X5451134Y-16288460D02*
X5432086Y-16297984D01*
X5432086Y-16297984D02*
X5413039Y-16297984D01*
X5413039Y-16297984D02*
X5393991Y-16288460D01*
X5393991Y-16288460D02*
X5384467Y-16278936D01*
X5384467Y-16278936D02*
X5374944Y-16259888D01*
X5374944Y-16259888D02*
X5365420Y-16221793D01*
X5365420Y-16221793D02*
X5365420Y-16174174D01*
X5365420Y-16174174D02*
X5374944Y-16136079D01*
X5374944Y-16136079D02*
X5384467Y-16117031D01*
X5384467Y-16117031D02*
X5393991Y-16107508D01*
X5393991Y-16107508D02*
X5413039Y-16097984D01*
X5565420Y-16297984D02*
X5565420Y-16164650D01*
X5565420Y-16183698D02*
X5574944Y-16174174D01*
X5574944Y-16174174D02*
X5593991Y-16164650D01*
X5593991Y-16164650D02*
X5622563Y-16164650D01*
X5622563Y-16164650D02*
X5641610Y-16174174D01*
X5641610Y-16174174D02*
X5651134Y-16193222D01*
X5651134Y-16193222D02*
X5651134Y-16297984D01*
X5651134Y-16193222D02*
X5660658Y-16174174D01*
X5660658Y-16174174D02*
X5679705Y-16164650D01*
X5679705Y-16164650D02*
X5708277Y-16164650D01*
X5708277Y-16164650D02*
X5727324Y-16174174D01*
X5727324Y-16174174D02*
X5736848Y-16193222D01*
X5736848Y-16193222D02*
X5736848Y-16297984D01*
X5832086Y-16297984D02*
X5832086Y-16164650D01*
X5832086Y-16183698D02*
X5841610Y-16174174D01*
X5841610Y-16174174D02*
X5860658Y-16164650D01*
X5860658Y-16164650D02*
X5889229Y-16164650D01*
X5889229Y-16164650D02*
X5908277Y-16174174D01*
X5908277Y-16174174D02*
X5917801Y-16193222D01*
X5917801Y-16193222D02*
X5917801Y-16297984D01*
X5917801Y-16193222D02*
X5927324Y-16174174D01*
X5927324Y-16174174D02*
X5946372Y-16164650D01*
X5946372Y-16164650D02*
X5974943Y-16164650D01*
X5974943Y-16164650D02*
X5993991Y-16174174D01*
X5993991Y-16174174D02*
X6003515Y-16193222D01*
X6003515Y-16193222D02*
X6003515Y-16297984D01*
X6393991Y-16088460D02*
X6222563Y-16345603D01*
X6651134Y-16097984D02*
X6670182Y-16097984D01*
X6670182Y-16097984D02*
X6689229Y-16107508D01*
X6689229Y-16107508D02*
X6698753Y-16117031D01*
X6698753Y-16117031D02*
X6708277Y-16136079D01*
X6708277Y-16136079D02*
X6717801Y-16174174D01*
X6717801Y-16174174D02*
X6717801Y-16221793D01*
X6717801Y-16221793D02*
X6708277Y-16259888D01*
X6708277Y-16259888D02*
X6698753Y-16278936D01*
X6698753Y-16278936D02*
X6689229Y-16288460D01*
X6689229Y-16288460D02*
X6670182Y-16297984D01*
X6670182Y-16297984D02*
X6651134Y-16297984D01*
X6651134Y-16297984D02*
X6632086Y-16288460D01*
X6632086Y-16288460D02*
X6622563Y-16278936D01*
X6622563Y-16278936D02*
X6613039Y-16259888D01*
X6613039Y-16259888D02*
X6603515Y-16221793D01*
X6603515Y-16221793D02*
X6603515Y-16174174D01*
X6603515Y-16174174D02*
X6613039Y-16136079D01*
X6613039Y-16136079D02*
X6622563Y-16117031D01*
X6622563Y-16117031D02*
X6632086Y-16107508D01*
X6632086Y-16107508D02*
X6651134Y-16097984D01*
X6803515Y-16278936D02*
X6813039Y-16288460D01*
X6813039Y-16288460D02*
X6803515Y-16297984D01*
X6803515Y-16297984D02*
X6793991Y-16288460D01*
X6793991Y-16288460D02*
X6803515Y-16278936D01*
X6803515Y-16278936D02*
X6803515Y-16297984D01*
X6936848Y-16097984D02*
X6955896Y-16097984D01*
X6955896Y-16097984D02*
X6974944Y-16107508D01*
X6974944Y-16107508D02*
X6984467Y-16117031D01*
X6984467Y-16117031D02*
X6993991Y-16136079D01*
X6993991Y-16136079D02*
X7003515Y-16174174D01*
X7003515Y-16174174D02*
X7003515Y-16221793D01*
X7003515Y-16221793D02*
X6993991Y-16259888D01*
X6993991Y-16259888D02*
X6984467Y-16278936D01*
X6984467Y-16278936D02*
X6974944Y-16288460D01*
X6974944Y-16288460D02*
X6955896Y-16297984D01*
X6955896Y-16297984D02*
X6936848Y-16297984D01*
X6936848Y-16297984D02*
X6917801Y-16288460D01*
X6917801Y-16288460D02*
X6908277Y-16278936D01*
X6908277Y-16278936D02*
X6898753Y-16259888D01*
X6898753Y-16259888D02*
X6889229Y-16221793D01*
X6889229Y-16221793D02*
X6889229Y-16174174D01*
X6889229Y-16174174D02*
X6898753Y-16136079D01*
X6898753Y-16136079D02*
X6908277Y-16117031D01*
X6908277Y-16117031D02*
X6917801Y-16107508D01*
X6917801Y-16107508D02*
X6936848Y-16097984D01*
X7070182Y-16097984D02*
X7193991Y-16097984D01*
X7193991Y-16097984D02*
X7127325Y-16174174D01*
X7127325Y-16174174D02*
X7155896Y-16174174D01*
X7155896Y-16174174D02*
X7174944Y-16183698D01*
X7174944Y-16183698D02*
X7184467Y-16193222D01*
X7184467Y-16193222D02*
X7193991Y-16212269D01*
X7193991Y-16212269D02*
X7193991Y-16259888D01*
X7193991Y-16259888D02*
X7184467Y-16278936D01*
X7184467Y-16278936D02*
X7174944Y-16288460D01*
X7174944Y-16288460D02*
X7155896Y-16297984D01*
X7155896Y-16297984D02*
X7098753Y-16297984D01*
X7098753Y-16297984D02*
X7079706Y-16288460D01*
X7079706Y-16288460D02*
X7070182Y-16278936D01*
X7384467Y-16297984D02*
X7270182Y-16297984D01*
X7327325Y-16297984D02*
X7327325Y-16097984D01*
X7327325Y-16097984D02*
X7308277Y-16126555D01*
X7308277Y-16126555D02*
X7289229Y-16145603D01*
X7289229Y-16145603D02*
X7270182Y-16155127D01*
X7565420Y-16097984D02*
X7470182Y-16097984D01*
X7470182Y-16097984D02*
X7460658Y-16193222D01*
X7460658Y-16193222D02*
X7470182Y-16183698D01*
X7470182Y-16183698D02*
X7489229Y-16174174D01*
X7489229Y-16174174D02*
X7536848Y-16174174D01*
X7536848Y-16174174D02*
X7555896Y-16183698D01*
X7555896Y-16183698D02*
X7565420Y-16193222D01*
X7565420Y-16193222D02*
X7574944Y-16212269D01*
X7574944Y-16212269D02*
X7574944Y-16259888D01*
X7574944Y-16259888D02*
X7565420Y-16278936D01*
X7565420Y-16278936D02*
X7555896Y-16288460D01*
X7555896Y-16288460D02*
X7536848Y-16297984D01*
X7536848Y-16297984D02*
X7489229Y-16297984D01*
X7489229Y-16297984D02*
X7470182Y-16288460D01*
X7470182Y-16288460D02*
X7460658Y-16278936D01*
X7651134Y-16097984D02*
X7651134Y-16136079D01*
X7727325Y-16097984D02*
X7727325Y-16136079D01*
X8022563Y-16374174D02*
X8013039Y-16364650D01*
X8013039Y-16364650D02*
X7993991Y-16336079D01*
X7993991Y-16336079D02*
X7984468Y-16317031D01*
X7984468Y-16317031D02*
X7974944Y-16288460D01*
X7974944Y-16288460D02*
X7965420Y-16240841D01*
X7965420Y-16240841D02*
X7965420Y-16202746D01*
X7965420Y-16202746D02*
X7974944Y-16155127D01*
X7974944Y-16155127D02*
X7984468Y-16126555D01*
X7984468Y-16126555D02*
X7993991Y-16107508D01*
X7993991Y-16107508D02*
X8013039Y-16078936D01*
X8013039Y-16078936D02*
X8022563Y-16069412D01*
X8184468Y-16164650D02*
X8184468Y-16297984D01*
X8136848Y-16088460D02*
X8089229Y-16231317D01*
X8089229Y-16231317D02*
X8213039Y-16231317D01*
X8441611Y-16297984D02*
X8441611Y-16097984D01*
X8527325Y-16297984D02*
X8527325Y-16193222D01*
X8527325Y-16193222D02*
X8517801Y-16174174D01*
X8517801Y-16174174D02*
X8498753Y-16164650D01*
X8498753Y-16164650D02*
X8470182Y-16164650D01*
X8470182Y-16164650D02*
X8451134Y-16174174D01*
X8451134Y-16174174D02*
X8441611Y-16183698D01*
X8651134Y-16297984D02*
X8632087Y-16288460D01*
X8632087Y-16288460D02*
X8622563Y-16278936D01*
X8622563Y-16278936D02*
X8613039Y-16259888D01*
X8613039Y-16259888D02*
X8613039Y-16202746D01*
X8613039Y-16202746D02*
X8622563Y-16183698D01*
X8622563Y-16183698D02*
X8632087Y-16174174D01*
X8632087Y-16174174D02*
X8651134Y-16164650D01*
X8651134Y-16164650D02*
X8679706Y-16164650D01*
X8679706Y-16164650D02*
X8698753Y-16174174D01*
X8698753Y-16174174D02*
X8708277Y-16183698D01*
X8708277Y-16183698D02*
X8717801Y-16202746D01*
X8717801Y-16202746D02*
X8717801Y-16259888D01*
X8717801Y-16259888D02*
X8708277Y-16278936D01*
X8708277Y-16278936D02*
X8698753Y-16288460D01*
X8698753Y-16288460D02*
X8679706Y-16297984D01*
X8679706Y-16297984D02*
X8651134Y-16297984D01*
X8832087Y-16297984D02*
X8813039Y-16288460D01*
X8813039Y-16288460D02*
X8803515Y-16269412D01*
X8803515Y-16269412D02*
X8803515Y-16097984D01*
X8984468Y-16288460D02*
X8965420Y-16297984D01*
X8965420Y-16297984D02*
X8927325Y-16297984D01*
X8927325Y-16297984D02*
X8908277Y-16288460D01*
X8908277Y-16288460D02*
X8898753Y-16269412D01*
X8898753Y-16269412D02*
X8898753Y-16193222D01*
X8898753Y-16193222D02*
X8908277Y-16174174D01*
X8908277Y-16174174D02*
X8927325Y-16164650D01*
X8927325Y-16164650D02*
X8965420Y-16164650D01*
X8965420Y-16164650D02*
X8984468Y-16174174D01*
X8984468Y-16174174D02*
X8993992Y-16193222D01*
X8993992Y-16193222D02*
X8993992Y-16212269D01*
X8993992Y-16212269D02*
X8898753Y-16231317D01*
X9070182Y-16288460D02*
X9089230Y-16297984D01*
X9089230Y-16297984D02*
X9127325Y-16297984D01*
X9127325Y-16297984D02*
X9146373Y-16288460D01*
X9146373Y-16288460D02*
X9155896Y-16269412D01*
X9155896Y-16269412D02*
X9155896Y-16259888D01*
X9155896Y-16259888D02*
X9146373Y-16240841D01*
X9146373Y-16240841D02*
X9127325Y-16231317D01*
X9127325Y-16231317D02*
X9098753Y-16231317D01*
X9098753Y-16231317D02*
X9079706Y-16221793D01*
X9079706Y-16221793D02*
X9070182Y-16202746D01*
X9070182Y-16202746D02*
X9070182Y-16193222D01*
X9070182Y-16193222D02*
X9079706Y-16174174D01*
X9079706Y-16174174D02*
X9098753Y-16164650D01*
X9098753Y-16164650D02*
X9127325Y-16164650D01*
X9127325Y-16164650D02*
X9146373Y-16174174D01*
X9222563Y-16374174D02*
X9232087Y-16364650D01*
X9232087Y-16364650D02*
X9251134Y-16336079D01*
X9251134Y-16336079D02*
X9260658Y-16317031D01*
X9260658Y-16317031D02*
X9270182Y-16288460D01*
X9270182Y-16288460D02*
X9279706Y-16240841D01*
X9279706Y-16240841D02*
X9279706Y-16202746D01*
X9279706Y-16202746D02*
X9270182Y-16155127D01*
X9270182Y-16155127D02*
X9260658Y-16126555D01*
X9260658Y-16126555D02*
X9251134Y-16107508D01*
X9251134Y-16107508D02*
X9232087Y-16078936D01*
X9232087Y-16078936D02*
X9222563Y-16069412D01*
D12*
X4402500Y-16425500D02*
X4402500Y-16515500D01*
X4357500Y-16470500D02*
X4447500Y-16470500D01*
D11*
X4746372Y-16361984D02*
X4765420Y-16361984D01*
X4765420Y-16361984D02*
X4784467Y-16371508D01*
X4784467Y-16371508D02*
X4793991Y-16381031D01*
X4793991Y-16381031D02*
X4803515Y-16400079D01*
X4803515Y-16400079D02*
X4813039Y-16438174D01*
X4813039Y-16438174D02*
X4813039Y-16485793D01*
X4813039Y-16485793D02*
X4803515Y-16523888D01*
X4803515Y-16523888D02*
X4793991Y-16542936D01*
X4793991Y-16542936D02*
X4784467Y-16552460D01*
X4784467Y-16552460D02*
X4765420Y-16561984D01*
X4765420Y-16561984D02*
X4746372Y-16561984D01*
X4746372Y-16561984D02*
X4727324Y-16552460D01*
X4727324Y-16552460D02*
X4717801Y-16542936D01*
X4717801Y-16542936D02*
X4708277Y-16523888D01*
X4708277Y-16523888D02*
X4698753Y-16485793D01*
X4698753Y-16485793D02*
X4698753Y-16438174D01*
X4698753Y-16438174D02*
X4708277Y-16400079D01*
X4708277Y-16400079D02*
X4717801Y-16381031D01*
X4717801Y-16381031D02*
X4727324Y-16371508D01*
X4727324Y-16371508D02*
X4746372Y-16361984D01*
X4898753Y-16542936D02*
X4908277Y-16552460D01*
X4908277Y-16552460D02*
X4898753Y-16561984D01*
X4898753Y-16561984D02*
X4889229Y-16552460D01*
X4889229Y-16552460D02*
X4898753Y-16542936D01*
X4898753Y-16542936D02*
X4898753Y-16561984D01*
X5003515Y-16561984D02*
X5041610Y-16561984D01*
X5041610Y-16561984D02*
X5060658Y-16552460D01*
X5060658Y-16552460D02*
X5070182Y-16542936D01*
X5070182Y-16542936D02*
X5089229Y-16514365D01*
X5089229Y-16514365D02*
X5098753Y-16476269D01*
X5098753Y-16476269D02*
X5098753Y-16400079D01*
X5098753Y-16400079D02*
X5089229Y-16381031D01*
X5089229Y-16381031D02*
X5079705Y-16371508D01*
X5079705Y-16371508D02*
X5060658Y-16361984D01*
X5060658Y-16361984D02*
X5022563Y-16361984D01*
X5022563Y-16361984D02*
X5003515Y-16371508D01*
X5003515Y-16371508D02*
X4993991Y-16381031D01*
X4993991Y-16381031D02*
X4984467Y-16400079D01*
X4984467Y-16400079D02*
X4984467Y-16447698D01*
X4984467Y-16447698D02*
X4993991Y-16466746D01*
X4993991Y-16466746D02*
X5003515Y-16476269D01*
X5003515Y-16476269D02*
X5022563Y-16485793D01*
X5022563Y-16485793D02*
X5060658Y-16485793D01*
X5060658Y-16485793D02*
X5079705Y-16476269D01*
X5079705Y-16476269D02*
X5089229Y-16466746D01*
X5089229Y-16466746D02*
X5098753Y-16447698D01*
X5222563Y-16361984D02*
X5241610Y-16361984D01*
X5241610Y-16361984D02*
X5260658Y-16371508D01*
X5260658Y-16371508D02*
X5270182Y-16381031D01*
X5270182Y-16381031D02*
X5279705Y-16400079D01*
X5279705Y-16400079D02*
X5289229Y-16438174D01*
X5289229Y-16438174D02*
X5289229Y-16485793D01*
X5289229Y-16485793D02*
X5279705Y-16523888D01*
X5279705Y-16523888D02*
X5270182Y-16542936D01*
X5270182Y-16542936D02*
X5260658Y-16552460D01*
X5260658Y-16552460D02*
X5241610Y-16561984D01*
X5241610Y-16561984D02*
X5222563Y-16561984D01*
X5222563Y-16561984D02*
X5203515Y-16552460D01*
X5203515Y-16552460D02*
X5193991Y-16542936D01*
X5193991Y-16542936D02*
X5184467Y-16523888D01*
X5184467Y-16523888D02*
X5174944Y-16485793D01*
X5174944Y-16485793D02*
X5174944Y-16438174D01*
X5174944Y-16438174D02*
X5184467Y-16400079D01*
X5184467Y-16400079D02*
X5193991Y-16381031D01*
X5193991Y-16381031D02*
X5203515Y-16371508D01*
X5203515Y-16371508D02*
X5222563Y-16361984D01*
X5413039Y-16361984D02*
X5432086Y-16361984D01*
X5432086Y-16361984D02*
X5451134Y-16371508D01*
X5451134Y-16371508D02*
X5460658Y-16381031D01*
X5460658Y-16381031D02*
X5470182Y-16400079D01*
X5470182Y-16400079D02*
X5479705Y-16438174D01*
X5479705Y-16438174D02*
X5479705Y-16485793D01*
X5479705Y-16485793D02*
X5470182Y-16523888D01*
X5470182Y-16523888D02*
X5460658Y-16542936D01*
X5460658Y-16542936D02*
X5451134Y-16552460D01*
X5451134Y-16552460D02*
X5432086Y-16561984D01*
X5432086Y-16561984D02*
X5413039Y-16561984D01*
X5413039Y-16561984D02*
X5393991Y-16552460D01*
X5393991Y-16552460D02*
X5384467Y-16542936D01*
X5384467Y-16542936D02*
X5374944Y-16523888D01*
X5374944Y-16523888D02*
X5365420Y-16485793D01*
X5365420Y-16485793D02*
X5365420Y-16438174D01*
X5365420Y-16438174D02*
X5374944Y-16400079D01*
X5374944Y-16400079D02*
X5384467Y-16381031D01*
X5384467Y-16381031D02*
X5393991Y-16371508D01*
X5393991Y-16371508D02*
X5413039Y-16361984D01*
X5565420Y-16561984D02*
X5565420Y-16428650D01*
X5565420Y-16447698D02*
X5574944Y-16438174D01*
X5574944Y-16438174D02*
X5593991Y-16428650D01*
X5593991Y-16428650D02*
X5622563Y-16428650D01*
X5622563Y-16428650D02*
X5641610Y-16438174D01*
X5641610Y-16438174D02*
X5651134Y-16457222D01*
X5651134Y-16457222D02*
X5651134Y-16561984D01*
X5651134Y-16457222D02*
X5660658Y-16438174D01*
X5660658Y-16438174D02*
X5679705Y-16428650D01*
X5679705Y-16428650D02*
X5708277Y-16428650D01*
X5708277Y-16428650D02*
X5727324Y-16438174D01*
X5727324Y-16438174D02*
X5736848Y-16457222D01*
X5736848Y-16457222D02*
X5736848Y-16561984D01*
X5832086Y-16561984D02*
X5832086Y-16428650D01*
X5832086Y-16447698D02*
X5841610Y-16438174D01*
X5841610Y-16438174D02*
X5860658Y-16428650D01*
X5860658Y-16428650D02*
X5889229Y-16428650D01*
X5889229Y-16428650D02*
X5908277Y-16438174D01*
X5908277Y-16438174D02*
X5917801Y-16457222D01*
X5917801Y-16457222D02*
X5917801Y-16561984D01*
X5917801Y-16457222D02*
X5927324Y-16438174D01*
X5927324Y-16438174D02*
X5946372Y-16428650D01*
X5946372Y-16428650D02*
X5974943Y-16428650D01*
X5974943Y-16428650D02*
X5993991Y-16438174D01*
X5993991Y-16438174D02*
X6003515Y-16457222D01*
X6003515Y-16457222D02*
X6003515Y-16561984D01*
X6393991Y-16352460D02*
X6222563Y-16609603D01*
X6651134Y-16361984D02*
X6670182Y-16361984D01*
X6670182Y-16361984D02*
X6689229Y-16371508D01*
X6689229Y-16371508D02*
X6698753Y-16381031D01*
X6698753Y-16381031D02*
X6708277Y-16400079D01*
X6708277Y-16400079D02*
X6717801Y-16438174D01*
X6717801Y-16438174D02*
X6717801Y-16485793D01*
X6717801Y-16485793D02*
X6708277Y-16523888D01*
X6708277Y-16523888D02*
X6698753Y-16542936D01*
X6698753Y-16542936D02*
X6689229Y-16552460D01*
X6689229Y-16552460D02*
X6670182Y-16561984D01*
X6670182Y-16561984D02*
X6651134Y-16561984D01*
X6651134Y-16561984D02*
X6632086Y-16552460D01*
X6632086Y-16552460D02*
X6622563Y-16542936D01*
X6622563Y-16542936D02*
X6613039Y-16523888D01*
X6613039Y-16523888D02*
X6603515Y-16485793D01*
X6603515Y-16485793D02*
X6603515Y-16438174D01*
X6603515Y-16438174D02*
X6613039Y-16400079D01*
X6613039Y-16400079D02*
X6622563Y-16381031D01*
X6622563Y-16381031D02*
X6632086Y-16371508D01*
X6632086Y-16371508D02*
X6651134Y-16361984D01*
X6803515Y-16542936D02*
X6813039Y-16552460D01*
X6813039Y-16552460D02*
X6803515Y-16561984D01*
X6803515Y-16561984D02*
X6793991Y-16552460D01*
X6793991Y-16552460D02*
X6803515Y-16542936D01*
X6803515Y-16542936D02*
X6803515Y-16561984D01*
X6936848Y-16361984D02*
X6955896Y-16361984D01*
X6955896Y-16361984D02*
X6974944Y-16371508D01*
X6974944Y-16371508D02*
X6984467Y-16381031D01*
X6984467Y-16381031D02*
X6993991Y-16400079D01*
X6993991Y-16400079D02*
X7003515Y-16438174D01*
X7003515Y-16438174D02*
X7003515Y-16485793D01*
X7003515Y-16485793D02*
X6993991Y-16523888D01*
X6993991Y-16523888D02*
X6984467Y-16542936D01*
X6984467Y-16542936D02*
X6974944Y-16552460D01*
X6974944Y-16552460D02*
X6955896Y-16561984D01*
X6955896Y-16561984D02*
X6936848Y-16561984D01*
X6936848Y-16561984D02*
X6917801Y-16552460D01*
X6917801Y-16552460D02*
X6908277Y-16542936D01*
X6908277Y-16542936D02*
X6898753Y-16523888D01*
X6898753Y-16523888D02*
X6889229Y-16485793D01*
X6889229Y-16485793D02*
X6889229Y-16438174D01*
X6889229Y-16438174D02*
X6898753Y-16400079D01*
X6898753Y-16400079D02*
X6908277Y-16381031D01*
X6908277Y-16381031D02*
X6917801Y-16371508D01*
X6917801Y-16371508D02*
X6936848Y-16361984D01*
X7070182Y-16361984D02*
X7193991Y-16361984D01*
X7193991Y-16361984D02*
X7127325Y-16438174D01*
X7127325Y-16438174D02*
X7155896Y-16438174D01*
X7155896Y-16438174D02*
X7174944Y-16447698D01*
X7174944Y-16447698D02*
X7184467Y-16457222D01*
X7184467Y-16457222D02*
X7193991Y-16476269D01*
X7193991Y-16476269D02*
X7193991Y-16523888D01*
X7193991Y-16523888D02*
X7184467Y-16542936D01*
X7184467Y-16542936D02*
X7174944Y-16552460D01*
X7174944Y-16552460D02*
X7155896Y-16561984D01*
X7155896Y-16561984D02*
X7098753Y-16561984D01*
X7098753Y-16561984D02*
X7079706Y-16552460D01*
X7079706Y-16552460D02*
X7070182Y-16542936D01*
X7374944Y-16361984D02*
X7279706Y-16361984D01*
X7279706Y-16361984D02*
X7270182Y-16457222D01*
X7270182Y-16457222D02*
X7279706Y-16447698D01*
X7279706Y-16447698D02*
X7298753Y-16438174D01*
X7298753Y-16438174D02*
X7346372Y-16438174D01*
X7346372Y-16438174D02*
X7365420Y-16447698D01*
X7365420Y-16447698D02*
X7374944Y-16457222D01*
X7374944Y-16457222D02*
X7384467Y-16476269D01*
X7384467Y-16476269D02*
X7384467Y-16523888D01*
X7384467Y-16523888D02*
X7374944Y-16542936D01*
X7374944Y-16542936D02*
X7365420Y-16552460D01*
X7365420Y-16552460D02*
X7346372Y-16561984D01*
X7346372Y-16561984D02*
X7298753Y-16561984D01*
X7298753Y-16561984D02*
X7279706Y-16552460D01*
X7279706Y-16552460D02*
X7270182Y-16542936D01*
X7555896Y-16428650D02*
X7555896Y-16561984D01*
X7508277Y-16352460D02*
X7460658Y-16495317D01*
X7460658Y-16495317D02*
X7584467Y-16495317D01*
X7651134Y-16361984D02*
X7651134Y-16400079D01*
X7727325Y-16361984D02*
X7727325Y-16400079D01*
X8022563Y-16638174D02*
X8013039Y-16628650D01*
X8013039Y-16628650D02*
X7993991Y-16600079D01*
X7993991Y-16600079D02*
X7984468Y-16581031D01*
X7984468Y-16581031D02*
X7974944Y-16552460D01*
X7974944Y-16552460D02*
X7965420Y-16504841D01*
X7965420Y-16504841D02*
X7965420Y-16466746D01*
X7965420Y-16466746D02*
X7974944Y-16419127D01*
X7974944Y-16419127D02*
X7984468Y-16390555D01*
X7984468Y-16390555D02*
X7993991Y-16371508D01*
X7993991Y-16371508D02*
X8013039Y-16342936D01*
X8013039Y-16342936D02*
X8022563Y-16333412D01*
X8184468Y-16428650D02*
X8184468Y-16561984D01*
X8136848Y-16352460D02*
X8089229Y-16495317D01*
X8089229Y-16495317D02*
X8213039Y-16495317D01*
X8441611Y-16561984D02*
X8441611Y-16361984D01*
X8527325Y-16561984D02*
X8527325Y-16457222D01*
X8527325Y-16457222D02*
X8517801Y-16438174D01*
X8517801Y-16438174D02*
X8498753Y-16428650D01*
X8498753Y-16428650D02*
X8470182Y-16428650D01*
X8470182Y-16428650D02*
X8451134Y-16438174D01*
X8451134Y-16438174D02*
X8441611Y-16447698D01*
X8651134Y-16561984D02*
X8632087Y-16552460D01*
X8632087Y-16552460D02*
X8622563Y-16542936D01*
X8622563Y-16542936D02*
X8613039Y-16523888D01*
X8613039Y-16523888D02*
X8613039Y-16466746D01*
X8613039Y-16466746D02*
X8622563Y-16447698D01*
X8622563Y-16447698D02*
X8632087Y-16438174D01*
X8632087Y-16438174D02*
X8651134Y-16428650D01*
X8651134Y-16428650D02*
X8679706Y-16428650D01*
X8679706Y-16428650D02*
X8698753Y-16438174D01*
X8698753Y-16438174D02*
X8708277Y-16447698D01*
X8708277Y-16447698D02*
X8717801Y-16466746D01*
X8717801Y-16466746D02*
X8717801Y-16523888D01*
X8717801Y-16523888D02*
X8708277Y-16542936D01*
X8708277Y-16542936D02*
X8698753Y-16552460D01*
X8698753Y-16552460D02*
X8679706Y-16561984D01*
X8679706Y-16561984D02*
X8651134Y-16561984D01*
X8832087Y-16561984D02*
X8813039Y-16552460D01*
X8813039Y-16552460D02*
X8803515Y-16533412D01*
X8803515Y-16533412D02*
X8803515Y-16361984D01*
X8984468Y-16552460D02*
X8965420Y-16561984D01*
X8965420Y-16561984D02*
X8927325Y-16561984D01*
X8927325Y-16561984D02*
X8908277Y-16552460D01*
X8908277Y-16552460D02*
X8898753Y-16533412D01*
X8898753Y-16533412D02*
X8898753Y-16457222D01*
X8898753Y-16457222D02*
X8908277Y-16438174D01*
X8908277Y-16438174D02*
X8927325Y-16428650D01*
X8927325Y-16428650D02*
X8965420Y-16428650D01*
X8965420Y-16428650D02*
X8984468Y-16438174D01*
X8984468Y-16438174D02*
X8993992Y-16457222D01*
X8993992Y-16457222D02*
X8993992Y-16476269D01*
X8993992Y-16476269D02*
X8898753Y-16495317D01*
X9070182Y-16552460D02*
X9089230Y-16561984D01*
X9089230Y-16561984D02*
X9127325Y-16561984D01*
X9127325Y-16561984D02*
X9146373Y-16552460D01*
X9146373Y-16552460D02*
X9155896Y-16533412D01*
X9155896Y-16533412D02*
X9155896Y-16523888D01*
X9155896Y-16523888D02*
X9146373Y-16504841D01*
X9146373Y-16504841D02*
X9127325Y-16495317D01*
X9127325Y-16495317D02*
X9098753Y-16495317D01*
X9098753Y-16495317D02*
X9079706Y-16485793D01*
X9079706Y-16485793D02*
X9070182Y-16466746D01*
X9070182Y-16466746D02*
X9070182Y-16457222D01*
X9070182Y-16457222D02*
X9079706Y-16438174D01*
X9079706Y-16438174D02*
X9098753Y-16428650D01*
X9098753Y-16428650D02*
X9127325Y-16428650D01*
X9127325Y-16428650D02*
X9146373Y-16438174D01*
X9222563Y-16638174D02*
X9232087Y-16628650D01*
X9232087Y-16628650D02*
X9251134Y-16600079D01*
X9251134Y-16600079D02*
X9260658Y-16581031D01*
X9260658Y-16581031D02*
X9270182Y-16552460D01*
X9270182Y-16552460D02*
X9279706Y-16504841D01*
X9279706Y-16504841D02*
X9279706Y-16466746D01*
X9279706Y-16466746D02*
X9270182Y-16419127D01*
X9270182Y-16419127D02*
X9260658Y-16390555D01*
X9260658Y-16390555D02*
X9251134Y-16371508D01*
X9251134Y-16371508D02*
X9232087Y-16342936D01*
X9232087Y-16342936D02*
X9222563Y-16333412D01*
D12*
X4432856Y-16769856D02*
X4432856Y-16699144D01*
X4362144Y-16699144D01*
X4362144Y-16769856D01*
X4432856Y-16769856D01*
D11*
X4813039Y-16825984D02*
X4698753Y-16825984D01*
X4755896Y-16825984D02*
X4755896Y-16625984D01*
X4755896Y-16625984D02*
X4736848Y-16654555D01*
X4736848Y-16654555D02*
X4717801Y-16673603D01*
X4717801Y-16673603D02*
X4698753Y-16683127D01*
X4898753Y-16806936D02*
X4908277Y-16816460D01*
X4908277Y-16816460D02*
X4898753Y-16825984D01*
X4898753Y-16825984D02*
X4889229Y-16816460D01*
X4889229Y-16816460D02*
X4898753Y-16806936D01*
X4898753Y-16806936D02*
X4898753Y-16825984D01*
X5032086Y-16625984D02*
X5051134Y-16625984D01*
X5051134Y-16625984D02*
X5070182Y-16635508D01*
X5070182Y-16635508D02*
X5079705Y-16645031D01*
X5079705Y-16645031D02*
X5089229Y-16664079D01*
X5089229Y-16664079D02*
X5098753Y-16702174D01*
X5098753Y-16702174D02*
X5098753Y-16749793D01*
X5098753Y-16749793D02*
X5089229Y-16787889D01*
X5089229Y-16787889D02*
X5079705Y-16806936D01*
X5079705Y-16806936D02*
X5070182Y-16816460D01*
X5070182Y-16816460D02*
X5051134Y-16825984D01*
X5051134Y-16825984D02*
X5032086Y-16825984D01*
X5032086Y-16825984D02*
X5013039Y-16816460D01*
X5013039Y-16816460D02*
X5003515Y-16806936D01*
X5003515Y-16806936D02*
X4993991Y-16787889D01*
X4993991Y-16787889D02*
X4984467Y-16749793D01*
X4984467Y-16749793D02*
X4984467Y-16702174D01*
X4984467Y-16702174D02*
X4993991Y-16664079D01*
X4993991Y-16664079D02*
X5003515Y-16645031D01*
X5003515Y-16645031D02*
X5013039Y-16635508D01*
X5013039Y-16635508D02*
X5032086Y-16625984D01*
X5222563Y-16625984D02*
X5241610Y-16625984D01*
X5241610Y-16625984D02*
X5260658Y-16635508D01*
X5260658Y-16635508D02*
X5270182Y-16645031D01*
X5270182Y-16645031D02*
X5279705Y-16664079D01*
X5279705Y-16664079D02*
X5289229Y-16702174D01*
X5289229Y-16702174D02*
X5289229Y-16749793D01*
X5289229Y-16749793D02*
X5279705Y-16787889D01*
X5279705Y-16787889D02*
X5270182Y-16806936D01*
X5270182Y-16806936D02*
X5260658Y-16816460D01*
X5260658Y-16816460D02*
X5241610Y-16825984D01*
X5241610Y-16825984D02*
X5222563Y-16825984D01*
X5222563Y-16825984D02*
X5203515Y-16816460D01*
X5203515Y-16816460D02*
X5193991Y-16806936D01*
X5193991Y-16806936D02*
X5184467Y-16787889D01*
X5184467Y-16787889D02*
X5174944Y-16749793D01*
X5174944Y-16749793D02*
X5174944Y-16702174D01*
X5174944Y-16702174D02*
X5184467Y-16664079D01*
X5184467Y-16664079D02*
X5193991Y-16645031D01*
X5193991Y-16645031D02*
X5203515Y-16635508D01*
X5203515Y-16635508D02*
X5222563Y-16625984D01*
X5413039Y-16625984D02*
X5432086Y-16625984D01*
X5432086Y-16625984D02*
X5451134Y-16635508D01*
X5451134Y-16635508D02*
X5460658Y-16645031D01*
X5460658Y-16645031D02*
X5470182Y-16664079D01*
X5470182Y-16664079D02*
X5479705Y-16702174D01*
X5479705Y-16702174D02*
X5479705Y-16749793D01*
X5479705Y-16749793D02*
X5470182Y-16787889D01*
X5470182Y-16787889D02*
X5460658Y-16806936D01*
X5460658Y-16806936D02*
X5451134Y-16816460D01*
X5451134Y-16816460D02*
X5432086Y-16825984D01*
X5432086Y-16825984D02*
X5413039Y-16825984D01*
X5413039Y-16825984D02*
X5393991Y-16816460D01*
X5393991Y-16816460D02*
X5384467Y-16806936D01*
X5384467Y-16806936D02*
X5374944Y-16787889D01*
X5374944Y-16787889D02*
X5365420Y-16749793D01*
X5365420Y-16749793D02*
X5365420Y-16702174D01*
X5365420Y-16702174D02*
X5374944Y-16664079D01*
X5374944Y-16664079D02*
X5384467Y-16645031D01*
X5384467Y-16645031D02*
X5393991Y-16635508D01*
X5393991Y-16635508D02*
X5413039Y-16625984D01*
X5565420Y-16825984D02*
X5565420Y-16692650D01*
X5565420Y-16711698D02*
X5574944Y-16702174D01*
X5574944Y-16702174D02*
X5593991Y-16692650D01*
X5593991Y-16692650D02*
X5622563Y-16692650D01*
X5622563Y-16692650D02*
X5641610Y-16702174D01*
X5641610Y-16702174D02*
X5651134Y-16721222D01*
X5651134Y-16721222D02*
X5651134Y-16825984D01*
X5651134Y-16721222D02*
X5660658Y-16702174D01*
X5660658Y-16702174D02*
X5679705Y-16692650D01*
X5679705Y-16692650D02*
X5708277Y-16692650D01*
X5708277Y-16692650D02*
X5727324Y-16702174D01*
X5727324Y-16702174D02*
X5736848Y-16721222D01*
X5736848Y-16721222D02*
X5736848Y-16825984D01*
X5832086Y-16825984D02*
X5832086Y-16692650D01*
X5832086Y-16711698D02*
X5841610Y-16702174D01*
X5841610Y-16702174D02*
X5860658Y-16692650D01*
X5860658Y-16692650D02*
X5889229Y-16692650D01*
X5889229Y-16692650D02*
X5908277Y-16702174D01*
X5908277Y-16702174D02*
X5917801Y-16721222D01*
X5917801Y-16721222D02*
X5917801Y-16825984D01*
X5917801Y-16721222D02*
X5927324Y-16702174D01*
X5927324Y-16702174D02*
X5946372Y-16692650D01*
X5946372Y-16692650D02*
X5974943Y-16692650D01*
X5974943Y-16692650D02*
X5993991Y-16702174D01*
X5993991Y-16702174D02*
X6003515Y-16721222D01*
X6003515Y-16721222D02*
X6003515Y-16825984D01*
X6393991Y-16616460D02*
X6222563Y-16873603D01*
X6651134Y-16625984D02*
X6670182Y-16625984D01*
X6670182Y-16625984D02*
X6689229Y-16635508D01*
X6689229Y-16635508D02*
X6698753Y-16645031D01*
X6698753Y-16645031D02*
X6708277Y-16664079D01*
X6708277Y-16664079D02*
X6717801Y-16702174D01*
X6717801Y-16702174D02*
X6717801Y-16749793D01*
X6717801Y-16749793D02*
X6708277Y-16787889D01*
X6708277Y-16787889D02*
X6698753Y-16806936D01*
X6698753Y-16806936D02*
X6689229Y-16816460D01*
X6689229Y-16816460D02*
X6670182Y-16825984D01*
X6670182Y-16825984D02*
X6651134Y-16825984D01*
X6651134Y-16825984D02*
X6632086Y-16816460D01*
X6632086Y-16816460D02*
X6622563Y-16806936D01*
X6622563Y-16806936D02*
X6613039Y-16787889D01*
X6613039Y-16787889D02*
X6603515Y-16749793D01*
X6603515Y-16749793D02*
X6603515Y-16702174D01*
X6603515Y-16702174D02*
X6613039Y-16664079D01*
X6613039Y-16664079D02*
X6622563Y-16645031D01*
X6622563Y-16645031D02*
X6632086Y-16635508D01*
X6632086Y-16635508D02*
X6651134Y-16625984D01*
X6803515Y-16806936D02*
X6813039Y-16816460D01*
X6813039Y-16816460D02*
X6803515Y-16825984D01*
X6803515Y-16825984D02*
X6793991Y-16816460D01*
X6793991Y-16816460D02*
X6803515Y-16806936D01*
X6803515Y-16806936D02*
X6803515Y-16825984D01*
X6936848Y-16625984D02*
X6955896Y-16625984D01*
X6955896Y-16625984D02*
X6974944Y-16635508D01*
X6974944Y-16635508D02*
X6984467Y-16645031D01*
X6984467Y-16645031D02*
X6993991Y-16664079D01*
X6993991Y-16664079D02*
X7003515Y-16702174D01*
X7003515Y-16702174D02*
X7003515Y-16749793D01*
X7003515Y-16749793D02*
X6993991Y-16787889D01*
X6993991Y-16787889D02*
X6984467Y-16806936D01*
X6984467Y-16806936D02*
X6974944Y-16816460D01*
X6974944Y-16816460D02*
X6955896Y-16825984D01*
X6955896Y-16825984D02*
X6936848Y-16825984D01*
X6936848Y-16825984D02*
X6917801Y-16816460D01*
X6917801Y-16816460D02*
X6908277Y-16806936D01*
X6908277Y-16806936D02*
X6898753Y-16787889D01*
X6898753Y-16787889D02*
X6889229Y-16749793D01*
X6889229Y-16749793D02*
X6889229Y-16702174D01*
X6889229Y-16702174D02*
X6898753Y-16664079D01*
X6898753Y-16664079D02*
X6908277Y-16645031D01*
X6908277Y-16645031D02*
X6917801Y-16635508D01*
X6917801Y-16635508D02*
X6936848Y-16625984D01*
X7070182Y-16625984D02*
X7193991Y-16625984D01*
X7193991Y-16625984D02*
X7127325Y-16702174D01*
X7127325Y-16702174D02*
X7155896Y-16702174D01*
X7155896Y-16702174D02*
X7174944Y-16711698D01*
X7174944Y-16711698D02*
X7184467Y-16721222D01*
X7184467Y-16721222D02*
X7193991Y-16740269D01*
X7193991Y-16740269D02*
X7193991Y-16787889D01*
X7193991Y-16787889D02*
X7184467Y-16806936D01*
X7184467Y-16806936D02*
X7174944Y-16816460D01*
X7174944Y-16816460D02*
X7155896Y-16825984D01*
X7155896Y-16825984D02*
X7098753Y-16825984D01*
X7098753Y-16825984D02*
X7079706Y-16816460D01*
X7079706Y-16816460D02*
X7070182Y-16806936D01*
X7289229Y-16825984D02*
X7327325Y-16825984D01*
X7327325Y-16825984D02*
X7346372Y-16816460D01*
X7346372Y-16816460D02*
X7355896Y-16806936D01*
X7355896Y-16806936D02*
X7374944Y-16778365D01*
X7374944Y-16778365D02*
X7384467Y-16740269D01*
X7384467Y-16740269D02*
X7384467Y-16664079D01*
X7384467Y-16664079D02*
X7374944Y-16645031D01*
X7374944Y-16645031D02*
X7365420Y-16635508D01*
X7365420Y-16635508D02*
X7346372Y-16625984D01*
X7346372Y-16625984D02*
X7308277Y-16625984D01*
X7308277Y-16625984D02*
X7289229Y-16635508D01*
X7289229Y-16635508D02*
X7279706Y-16645031D01*
X7279706Y-16645031D02*
X7270182Y-16664079D01*
X7270182Y-16664079D02*
X7270182Y-16711698D01*
X7270182Y-16711698D02*
X7279706Y-16730746D01*
X7279706Y-16730746D02*
X7289229Y-16740269D01*
X7289229Y-16740269D02*
X7308277Y-16749793D01*
X7308277Y-16749793D02*
X7346372Y-16749793D01*
X7346372Y-16749793D02*
X7365420Y-16740269D01*
X7365420Y-16740269D02*
X7374944Y-16730746D01*
X7374944Y-16730746D02*
X7384467Y-16711698D01*
X7555896Y-16692650D02*
X7555896Y-16825984D01*
X7508277Y-16616460D02*
X7460658Y-16759317D01*
X7460658Y-16759317D02*
X7584467Y-16759317D01*
X7651134Y-16625984D02*
X7651134Y-16664079D01*
X7727325Y-16625984D02*
X7727325Y-16664079D01*
X8022563Y-16902174D02*
X8013039Y-16892650D01*
X8013039Y-16892650D02*
X7993991Y-16864079D01*
X7993991Y-16864079D02*
X7984468Y-16845031D01*
X7984468Y-16845031D02*
X7974944Y-16816460D01*
X7974944Y-16816460D02*
X7965420Y-16768841D01*
X7965420Y-16768841D02*
X7965420Y-16730746D01*
X7965420Y-16730746D02*
X7974944Y-16683127D01*
X7974944Y-16683127D02*
X7984468Y-16654555D01*
X7984468Y-16654555D02*
X7993991Y-16635508D01*
X7993991Y-16635508D02*
X8013039Y-16606936D01*
X8013039Y-16606936D02*
X8022563Y-16597412D01*
X8203515Y-16825984D02*
X8089229Y-16825984D01*
X8146372Y-16825984D02*
X8146372Y-16625984D01*
X8146372Y-16625984D02*
X8127325Y-16654555D01*
X8127325Y-16654555D02*
X8108277Y-16673603D01*
X8108277Y-16673603D02*
X8089229Y-16683127D01*
X8270182Y-16625984D02*
X8393991Y-16625984D01*
X8393991Y-16625984D02*
X8327325Y-16702174D01*
X8327325Y-16702174D02*
X8355896Y-16702174D01*
X8355896Y-16702174D02*
X8374944Y-16711698D01*
X8374944Y-16711698D02*
X8384468Y-16721222D01*
X8384468Y-16721222D02*
X8393991Y-16740269D01*
X8393991Y-16740269D02*
X8393991Y-16787889D01*
X8393991Y-16787889D02*
X8384468Y-16806936D01*
X8384468Y-16806936D02*
X8374944Y-16816460D01*
X8374944Y-16816460D02*
X8355896Y-16825984D01*
X8355896Y-16825984D02*
X8298753Y-16825984D01*
X8298753Y-16825984D02*
X8279706Y-16816460D01*
X8279706Y-16816460D02*
X8270182Y-16806936D01*
X8632087Y-16825984D02*
X8632087Y-16625984D01*
X8717801Y-16825984D02*
X8717801Y-16721222D01*
X8717801Y-16721222D02*
X8708277Y-16702174D01*
X8708277Y-16702174D02*
X8689230Y-16692650D01*
X8689230Y-16692650D02*
X8660658Y-16692650D01*
X8660658Y-16692650D02*
X8641611Y-16702174D01*
X8641611Y-16702174D02*
X8632087Y-16711698D01*
X8841611Y-16825984D02*
X8822563Y-16816460D01*
X8822563Y-16816460D02*
X8813039Y-16806936D01*
X8813039Y-16806936D02*
X8803515Y-16787889D01*
X8803515Y-16787889D02*
X8803515Y-16730746D01*
X8803515Y-16730746D02*
X8813039Y-16711698D01*
X8813039Y-16711698D02*
X8822563Y-16702174D01*
X8822563Y-16702174D02*
X8841611Y-16692650D01*
X8841611Y-16692650D02*
X8870182Y-16692650D01*
X8870182Y-16692650D02*
X8889230Y-16702174D01*
X8889230Y-16702174D02*
X8898753Y-16711698D01*
X8898753Y-16711698D02*
X8908277Y-16730746D01*
X8908277Y-16730746D02*
X8908277Y-16787889D01*
X8908277Y-16787889D02*
X8898753Y-16806936D01*
X8898753Y-16806936D02*
X8889230Y-16816460D01*
X8889230Y-16816460D02*
X8870182Y-16825984D01*
X8870182Y-16825984D02*
X8841611Y-16825984D01*
X9022563Y-16825984D02*
X9003515Y-16816460D01*
X9003515Y-16816460D02*
X8993992Y-16797412D01*
X8993992Y-16797412D02*
X8993992Y-16625984D01*
X9174944Y-16816460D02*
X9155896Y-16825984D01*
X9155896Y-16825984D02*
X9117801Y-16825984D01*
X9117801Y-16825984D02*
X9098753Y-16816460D01*
X9098753Y-16816460D02*
X9089230Y-16797412D01*
X9089230Y-16797412D02*
X9089230Y-16721222D01*
X9089230Y-16721222D02*
X9098753Y-16702174D01*
X9098753Y-16702174D02*
X9117801Y-16692650D01*
X9117801Y-16692650D02*
X9155896Y-16692650D01*
X9155896Y-16692650D02*
X9174944Y-16702174D01*
X9174944Y-16702174D02*
X9184468Y-16721222D01*
X9184468Y-16721222D02*
X9184468Y-16740269D01*
X9184468Y-16740269D02*
X9089230Y-16759317D01*
X9260658Y-16816460D02*
X9279706Y-16825984D01*
X9279706Y-16825984D02*
X9317801Y-16825984D01*
X9317801Y-16825984D02*
X9336849Y-16816460D01*
X9336849Y-16816460D02*
X9346373Y-16797412D01*
X9346373Y-16797412D02*
X9346373Y-16787889D01*
X9346373Y-16787889D02*
X9336849Y-16768841D01*
X9336849Y-16768841D02*
X9317801Y-16759317D01*
X9317801Y-16759317D02*
X9289230Y-16759317D01*
X9289230Y-16759317D02*
X9270182Y-16749793D01*
X9270182Y-16749793D02*
X9260658Y-16730746D01*
X9260658Y-16730746D02*
X9260658Y-16721222D01*
X9260658Y-16721222D02*
X9270182Y-16702174D01*
X9270182Y-16702174D02*
X9289230Y-16692650D01*
X9289230Y-16692650D02*
X9317801Y-16692650D01*
X9317801Y-16692650D02*
X9336849Y-16702174D01*
X9413039Y-16902174D02*
X9422563Y-16892650D01*
X9422563Y-16892650D02*
X9441611Y-16864079D01*
X9441611Y-16864079D02*
X9451134Y-16845031D01*
X9451134Y-16845031D02*
X9460658Y-16816460D01*
X9460658Y-16816460D02*
X9470182Y-16768841D01*
X9470182Y-16768841D02*
X9470182Y-16730746D01*
X9470182Y-16730746D02*
X9460658Y-16683127D01*
X9460658Y-16683127D02*
X9451134Y-16654555D01*
X9451134Y-16654555D02*
X9441611Y-16635508D01*
X9441611Y-16635508D02*
X9422563Y-16606936D01*
X9422563Y-16606936D02*
X9413039Y-16597412D01*
D13*
X4392500Y-17053500D02*
X4447500Y-16998500D01*
X4392500Y-16943500D01*
X4337500Y-16998500D01*
X4392500Y-17053500D01*
D11*
X4813039Y-17089984D02*
X4698753Y-17089984D01*
X4755896Y-17089984D02*
X4755896Y-16889984D01*
X4755896Y-16889984D02*
X4736848Y-16918555D01*
X4736848Y-16918555D02*
X4717801Y-16937603D01*
X4717801Y-16937603D02*
X4698753Y-16947127D01*
X4898753Y-17070936D02*
X4908277Y-17080460D01*
X4908277Y-17080460D02*
X4898753Y-17089984D01*
X4898753Y-17089984D02*
X4889229Y-17080460D01*
X4889229Y-17080460D02*
X4898753Y-17070936D01*
X4898753Y-17070936D02*
X4898753Y-17089984D01*
X5098753Y-17089984D02*
X4984467Y-17089984D01*
X5041610Y-17089984D02*
X5041610Y-16889984D01*
X5041610Y-16889984D02*
X5022563Y-16918555D01*
X5022563Y-16918555D02*
X5003515Y-16937603D01*
X5003515Y-16937603D02*
X4984467Y-16947127D01*
X5222563Y-16889984D02*
X5241610Y-16889984D01*
X5241610Y-16889984D02*
X5260658Y-16899508D01*
X5260658Y-16899508D02*
X5270182Y-16909031D01*
X5270182Y-16909031D02*
X5279705Y-16928079D01*
X5279705Y-16928079D02*
X5289229Y-16966174D01*
X5289229Y-16966174D02*
X5289229Y-17013793D01*
X5289229Y-17013793D02*
X5279705Y-17051889D01*
X5279705Y-17051889D02*
X5270182Y-17070936D01*
X5270182Y-17070936D02*
X5260658Y-17080460D01*
X5260658Y-17080460D02*
X5241610Y-17089984D01*
X5241610Y-17089984D02*
X5222563Y-17089984D01*
X5222563Y-17089984D02*
X5203515Y-17080460D01*
X5203515Y-17080460D02*
X5193991Y-17070936D01*
X5193991Y-17070936D02*
X5184467Y-17051889D01*
X5184467Y-17051889D02*
X5174944Y-17013793D01*
X5174944Y-17013793D02*
X5174944Y-16966174D01*
X5174944Y-16966174D02*
X5184467Y-16928079D01*
X5184467Y-16928079D02*
X5193991Y-16909031D01*
X5193991Y-16909031D02*
X5203515Y-16899508D01*
X5203515Y-16899508D02*
X5222563Y-16889984D01*
X5413039Y-16889984D02*
X5432086Y-16889984D01*
X5432086Y-16889984D02*
X5451134Y-16899508D01*
X5451134Y-16899508D02*
X5460658Y-16909031D01*
X5460658Y-16909031D02*
X5470182Y-16928079D01*
X5470182Y-16928079D02*
X5479705Y-16966174D01*
X5479705Y-16966174D02*
X5479705Y-17013793D01*
X5479705Y-17013793D02*
X5470182Y-17051889D01*
X5470182Y-17051889D02*
X5460658Y-17070936D01*
X5460658Y-17070936D02*
X5451134Y-17080460D01*
X5451134Y-17080460D02*
X5432086Y-17089984D01*
X5432086Y-17089984D02*
X5413039Y-17089984D01*
X5413039Y-17089984D02*
X5393991Y-17080460D01*
X5393991Y-17080460D02*
X5384467Y-17070936D01*
X5384467Y-17070936D02*
X5374944Y-17051889D01*
X5374944Y-17051889D02*
X5365420Y-17013793D01*
X5365420Y-17013793D02*
X5365420Y-16966174D01*
X5365420Y-16966174D02*
X5374944Y-16928079D01*
X5374944Y-16928079D02*
X5384467Y-16909031D01*
X5384467Y-16909031D02*
X5393991Y-16899508D01*
X5393991Y-16899508D02*
X5413039Y-16889984D01*
X5565420Y-17089984D02*
X5565420Y-16956650D01*
X5565420Y-16975698D02*
X5574944Y-16966174D01*
X5574944Y-16966174D02*
X5593991Y-16956650D01*
X5593991Y-16956650D02*
X5622563Y-16956650D01*
X5622563Y-16956650D02*
X5641610Y-16966174D01*
X5641610Y-16966174D02*
X5651134Y-16985222D01*
X5651134Y-16985222D02*
X5651134Y-17089984D01*
X5651134Y-16985222D02*
X5660658Y-16966174D01*
X5660658Y-16966174D02*
X5679705Y-16956650D01*
X5679705Y-16956650D02*
X5708277Y-16956650D01*
X5708277Y-16956650D02*
X5727324Y-16966174D01*
X5727324Y-16966174D02*
X5736848Y-16985222D01*
X5736848Y-16985222D02*
X5736848Y-17089984D01*
X5832086Y-17089984D02*
X5832086Y-16956650D01*
X5832086Y-16975698D02*
X5841610Y-16966174D01*
X5841610Y-16966174D02*
X5860658Y-16956650D01*
X5860658Y-16956650D02*
X5889229Y-16956650D01*
X5889229Y-16956650D02*
X5908277Y-16966174D01*
X5908277Y-16966174D02*
X5917801Y-16985222D01*
X5917801Y-16985222D02*
X5917801Y-17089984D01*
X5917801Y-16985222D02*
X5927324Y-16966174D01*
X5927324Y-16966174D02*
X5946372Y-16956650D01*
X5946372Y-16956650D02*
X5974943Y-16956650D01*
X5974943Y-16956650D02*
X5993991Y-16966174D01*
X5993991Y-16966174D02*
X6003515Y-16985222D01*
X6003515Y-16985222D02*
X6003515Y-17089984D01*
X6393991Y-16880460D02*
X6222563Y-17137603D01*
X6651134Y-16889984D02*
X6670182Y-16889984D01*
X6670182Y-16889984D02*
X6689229Y-16899508D01*
X6689229Y-16899508D02*
X6698753Y-16909031D01*
X6698753Y-16909031D02*
X6708277Y-16928079D01*
X6708277Y-16928079D02*
X6717801Y-16966174D01*
X6717801Y-16966174D02*
X6717801Y-17013793D01*
X6717801Y-17013793D02*
X6708277Y-17051889D01*
X6708277Y-17051889D02*
X6698753Y-17070936D01*
X6698753Y-17070936D02*
X6689229Y-17080460D01*
X6689229Y-17080460D02*
X6670182Y-17089984D01*
X6670182Y-17089984D02*
X6651134Y-17089984D01*
X6651134Y-17089984D02*
X6632086Y-17080460D01*
X6632086Y-17080460D02*
X6622563Y-17070936D01*
X6622563Y-17070936D02*
X6613039Y-17051889D01*
X6613039Y-17051889D02*
X6603515Y-17013793D01*
X6603515Y-17013793D02*
X6603515Y-16966174D01*
X6603515Y-16966174D02*
X6613039Y-16928079D01*
X6613039Y-16928079D02*
X6622563Y-16909031D01*
X6622563Y-16909031D02*
X6632086Y-16899508D01*
X6632086Y-16899508D02*
X6651134Y-16889984D01*
X6803515Y-17070936D02*
X6813039Y-17080460D01*
X6813039Y-17080460D02*
X6803515Y-17089984D01*
X6803515Y-17089984D02*
X6793991Y-17080460D01*
X6793991Y-17080460D02*
X6803515Y-17070936D01*
X6803515Y-17070936D02*
X6803515Y-17089984D01*
X6936848Y-16889984D02*
X6955896Y-16889984D01*
X6955896Y-16889984D02*
X6974944Y-16899508D01*
X6974944Y-16899508D02*
X6984467Y-16909031D01*
X6984467Y-16909031D02*
X6993991Y-16928079D01*
X6993991Y-16928079D02*
X7003515Y-16966174D01*
X7003515Y-16966174D02*
X7003515Y-17013793D01*
X7003515Y-17013793D02*
X6993991Y-17051889D01*
X6993991Y-17051889D02*
X6984467Y-17070936D01*
X6984467Y-17070936D02*
X6974944Y-17080460D01*
X6974944Y-17080460D02*
X6955896Y-17089984D01*
X6955896Y-17089984D02*
X6936848Y-17089984D01*
X6936848Y-17089984D02*
X6917801Y-17080460D01*
X6917801Y-17080460D02*
X6908277Y-17070936D01*
X6908277Y-17070936D02*
X6898753Y-17051889D01*
X6898753Y-17051889D02*
X6889229Y-17013793D01*
X6889229Y-17013793D02*
X6889229Y-16966174D01*
X6889229Y-16966174D02*
X6898753Y-16928079D01*
X6898753Y-16928079D02*
X6908277Y-16909031D01*
X6908277Y-16909031D02*
X6917801Y-16899508D01*
X6917801Y-16899508D02*
X6936848Y-16889984D01*
X7174944Y-16956650D02*
X7174944Y-17089984D01*
X7127325Y-16880460D02*
X7079706Y-17023317D01*
X7079706Y-17023317D02*
X7203515Y-17023317D01*
X7260658Y-16889984D02*
X7384467Y-16889984D01*
X7384467Y-16889984D02*
X7317801Y-16966174D01*
X7317801Y-16966174D02*
X7346372Y-16966174D01*
X7346372Y-16966174D02*
X7365420Y-16975698D01*
X7365420Y-16975698D02*
X7374944Y-16985222D01*
X7374944Y-16985222D02*
X7384467Y-17004270D01*
X7384467Y-17004270D02*
X7384467Y-17051889D01*
X7384467Y-17051889D02*
X7374944Y-17070936D01*
X7374944Y-17070936D02*
X7365420Y-17080460D01*
X7365420Y-17080460D02*
X7346372Y-17089984D01*
X7346372Y-17089984D02*
X7289229Y-17089984D01*
X7289229Y-17089984D02*
X7270182Y-17080460D01*
X7270182Y-17080460D02*
X7260658Y-17070936D01*
X7451134Y-16889984D02*
X7574944Y-16889984D01*
X7574944Y-16889984D02*
X7508277Y-16966174D01*
X7508277Y-16966174D02*
X7536848Y-16966174D01*
X7536848Y-16966174D02*
X7555896Y-16975698D01*
X7555896Y-16975698D02*
X7565420Y-16985222D01*
X7565420Y-16985222D02*
X7574944Y-17004270D01*
X7574944Y-17004270D02*
X7574944Y-17051889D01*
X7574944Y-17051889D02*
X7565420Y-17070936D01*
X7565420Y-17070936D02*
X7555896Y-17080460D01*
X7555896Y-17080460D02*
X7536848Y-17089984D01*
X7536848Y-17089984D02*
X7479706Y-17089984D01*
X7479706Y-17089984D02*
X7460658Y-17080460D01*
X7460658Y-17080460D02*
X7451134Y-17070936D01*
X7651134Y-16889984D02*
X7651134Y-16928079D01*
X7727325Y-16889984D02*
X7727325Y-16928079D01*
X8022563Y-17166174D02*
X8013039Y-17156650D01*
X8013039Y-17156650D02*
X7993991Y-17128079D01*
X7993991Y-17128079D02*
X7984468Y-17109031D01*
X7984468Y-17109031D02*
X7974944Y-17080460D01*
X7974944Y-17080460D02*
X7965420Y-17032841D01*
X7965420Y-17032841D02*
X7965420Y-16994746D01*
X7965420Y-16994746D02*
X7974944Y-16947127D01*
X7974944Y-16947127D02*
X7984468Y-16918555D01*
X7984468Y-16918555D02*
X7993991Y-16899508D01*
X7993991Y-16899508D02*
X8013039Y-16870936D01*
X8013039Y-16870936D02*
X8022563Y-16861412D01*
X8203515Y-17089984D02*
X8089229Y-17089984D01*
X8146372Y-17089984D02*
X8146372Y-16889984D01*
X8146372Y-16889984D02*
X8127325Y-16918555D01*
X8127325Y-16918555D02*
X8108277Y-16937603D01*
X8108277Y-16937603D02*
X8089229Y-16947127D01*
X8374944Y-16889984D02*
X8336848Y-16889984D01*
X8336848Y-16889984D02*
X8317801Y-16899508D01*
X8317801Y-16899508D02*
X8308277Y-16909031D01*
X8308277Y-16909031D02*
X8289229Y-16937603D01*
X8289229Y-16937603D02*
X8279706Y-16975698D01*
X8279706Y-16975698D02*
X8279706Y-17051889D01*
X8279706Y-17051889D02*
X8289229Y-17070936D01*
X8289229Y-17070936D02*
X8298753Y-17080460D01*
X8298753Y-17080460D02*
X8317801Y-17089984D01*
X8317801Y-17089984D02*
X8355896Y-17089984D01*
X8355896Y-17089984D02*
X8374944Y-17080460D01*
X8374944Y-17080460D02*
X8384468Y-17070936D01*
X8384468Y-17070936D02*
X8393991Y-17051889D01*
X8393991Y-17051889D02*
X8393991Y-17004270D01*
X8393991Y-17004270D02*
X8384468Y-16985222D01*
X8384468Y-16985222D02*
X8374944Y-16975698D01*
X8374944Y-16975698D02*
X8355896Y-16966174D01*
X8355896Y-16966174D02*
X8317801Y-16966174D01*
X8317801Y-16966174D02*
X8298753Y-16975698D01*
X8298753Y-16975698D02*
X8289229Y-16985222D01*
X8289229Y-16985222D02*
X8279706Y-17004270D01*
X8632087Y-17089984D02*
X8632087Y-16889984D01*
X8717801Y-17089984D02*
X8717801Y-16985222D01*
X8717801Y-16985222D02*
X8708277Y-16966174D01*
X8708277Y-16966174D02*
X8689230Y-16956650D01*
X8689230Y-16956650D02*
X8660658Y-16956650D01*
X8660658Y-16956650D02*
X8641611Y-16966174D01*
X8641611Y-16966174D02*
X8632087Y-16975698D01*
X8841611Y-17089984D02*
X8822563Y-17080460D01*
X8822563Y-17080460D02*
X8813039Y-17070936D01*
X8813039Y-17070936D02*
X8803515Y-17051889D01*
X8803515Y-17051889D02*
X8803515Y-16994746D01*
X8803515Y-16994746D02*
X8813039Y-16975698D01*
X8813039Y-16975698D02*
X8822563Y-16966174D01*
X8822563Y-16966174D02*
X8841611Y-16956650D01*
X8841611Y-16956650D02*
X8870182Y-16956650D01*
X8870182Y-16956650D02*
X8889230Y-16966174D01*
X8889230Y-16966174D02*
X8898753Y-16975698D01*
X8898753Y-16975698D02*
X8908277Y-16994746D01*
X8908277Y-16994746D02*
X8908277Y-17051889D01*
X8908277Y-17051889D02*
X8898753Y-17070936D01*
X8898753Y-17070936D02*
X8889230Y-17080460D01*
X8889230Y-17080460D02*
X8870182Y-17089984D01*
X8870182Y-17089984D02*
X8841611Y-17089984D01*
X9022563Y-17089984D02*
X9003515Y-17080460D01*
X9003515Y-17080460D02*
X8993992Y-17061412D01*
X8993992Y-17061412D02*
X8993992Y-16889984D01*
X9174944Y-17080460D02*
X9155896Y-17089984D01*
X9155896Y-17089984D02*
X9117801Y-17089984D01*
X9117801Y-17089984D02*
X9098753Y-17080460D01*
X9098753Y-17080460D02*
X9089230Y-17061412D01*
X9089230Y-17061412D02*
X9089230Y-16985222D01*
X9089230Y-16985222D02*
X9098753Y-16966174D01*
X9098753Y-16966174D02*
X9117801Y-16956650D01*
X9117801Y-16956650D02*
X9155896Y-16956650D01*
X9155896Y-16956650D02*
X9174944Y-16966174D01*
X9174944Y-16966174D02*
X9184468Y-16985222D01*
X9184468Y-16985222D02*
X9184468Y-17004270D01*
X9184468Y-17004270D02*
X9089230Y-17023317D01*
X9260658Y-17080460D02*
X9279706Y-17089984D01*
X9279706Y-17089984D02*
X9317801Y-17089984D01*
X9317801Y-17089984D02*
X9336849Y-17080460D01*
X9336849Y-17080460D02*
X9346373Y-17061412D01*
X9346373Y-17061412D02*
X9346373Y-17051889D01*
X9346373Y-17051889D02*
X9336849Y-17032841D01*
X9336849Y-17032841D02*
X9317801Y-17023317D01*
X9317801Y-17023317D02*
X9289230Y-17023317D01*
X9289230Y-17023317D02*
X9270182Y-17013793D01*
X9270182Y-17013793D02*
X9260658Y-16994746D01*
X9260658Y-16994746D02*
X9260658Y-16985222D01*
X9260658Y-16985222D02*
X9270182Y-16966174D01*
X9270182Y-16966174D02*
X9289230Y-16956650D01*
X9289230Y-16956650D02*
X9317801Y-16956650D01*
X9317801Y-16956650D02*
X9336849Y-16966174D01*
X9413039Y-17166174D02*
X9422563Y-17156650D01*
X9422563Y-17156650D02*
X9441611Y-17128079D01*
X9441611Y-17128079D02*
X9451134Y-17109031D01*
X9451134Y-17109031D02*
X9460658Y-17080460D01*
X9460658Y-17080460D02*
X9470182Y-17032841D01*
X9470182Y-17032841D02*
X9470182Y-16994746D01*
X9470182Y-16994746D02*
X9460658Y-16947127D01*
X9460658Y-16947127D02*
X9451134Y-16918555D01*
X9451134Y-16918555D02*
X9441611Y-16899508D01*
X9441611Y-16899508D02*
X9422563Y-16870936D01*
X9422563Y-16870936D02*
X9413039Y-16861412D01*
D14*
X4297500Y-17187500D02*
X4447500Y-17337500D01*
X4447500Y-17187500D02*
X4297500Y-17337500D01*
X4447500Y-17262500D02*
G75*
G02*
X4297500Y-17262500I-75000J0D01*
G01*
X4297500Y-17262500D02*
G75*
G02*
X4447500Y-17262500I75000J0D01*
G01*
D11*
X4813039Y-17353984D02*
X4698753Y-17353984D01*
X4755896Y-17353984D02*
X4755896Y-17153984D01*
X4755896Y-17153984D02*
X4736848Y-17182555D01*
X4736848Y-17182555D02*
X4717801Y-17201603D01*
X4717801Y-17201603D02*
X4698753Y-17211127D01*
X4898753Y-17334936D02*
X4908277Y-17344460D01*
X4908277Y-17344460D02*
X4898753Y-17353984D01*
X4898753Y-17353984D02*
X4889229Y-17344460D01*
X4889229Y-17344460D02*
X4898753Y-17334936D01*
X4898753Y-17334936D02*
X4898753Y-17353984D01*
X5089229Y-17153984D02*
X4993991Y-17153984D01*
X4993991Y-17153984D02*
X4984467Y-17249222D01*
X4984467Y-17249222D02*
X4993991Y-17239698D01*
X4993991Y-17239698D02*
X5013039Y-17230174D01*
X5013039Y-17230174D02*
X5060658Y-17230174D01*
X5060658Y-17230174D02*
X5079705Y-17239698D01*
X5079705Y-17239698D02*
X5089229Y-17249222D01*
X5089229Y-17249222D02*
X5098753Y-17268270D01*
X5098753Y-17268270D02*
X5098753Y-17315889D01*
X5098753Y-17315889D02*
X5089229Y-17334936D01*
X5089229Y-17334936D02*
X5079705Y-17344460D01*
X5079705Y-17344460D02*
X5060658Y-17353984D01*
X5060658Y-17353984D02*
X5013039Y-17353984D01*
X5013039Y-17353984D02*
X4993991Y-17344460D01*
X4993991Y-17344460D02*
X4984467Y-17334936D01*
X5222563Y-17153984D02*
X5241610Y-17153984D01*
X5241610Y-17153984D02*
X5260658Y-17163508D01*
X5260658Y-17163508D02*
X5270182Y-17173031D01*
X5270182Y-17173031D02*
X5279705Y-17192079D01*
X5279705Y-17192079D02*
X5289229Y-17230174D01*
X5289229Y-17230174D02*
X5289229Y-17277793D01*
X5289229Y-17277793D02*
X5279705Y-17315889D01*
X5279705Y-17315889D02*
X5270182Y-17334936D01*
X5270182Y-17334936D02*
X5260658Y-17344460D01*
X5260658Y-17344460D02*
X5241610Y-17353984D01*
X5241610Y-17353984D02*
X5222563Y-17353984D01*
X5222563Y-17353984D02*
X5203515Y-17344460D01*
X5203515Y-17344460D02*
X5193991Y-17334936D01*
X5193991Y-17334936D02*
X5184467Y-17315889D01*
X5184467Y-17315889D02*
X5174944Y-17277793D01*
X5174944Y-17277793D02*
X5174944Y-17230174D01*
X5174944Y-17230174D02*
X5184467Y-17192079D01*
X5184467Y-17192079D02*
X5193991Y-17173031D01*
X5193991Y-17173031D02*
X5203515Y-17163508D01*
X5203515Y-17163508D02*
X5222563Y-17153984D01*
X5413039Y-17153984D02*
X5432086Y-17153984D01*
X5432086Y-17153984D02*
X5451134Y-17163508D01*
X5451134Y-17163508D02*
X5460658Y-17173031D01*
X5460658Y-17173031D02*
X5470182Y-17192079D01*
X5470182Y-17192079D02*
X5479705Y-17230174D01*
X5479705Y-17230174D02*
X5479705Y-17277793D01*
X5479705Y-17277793D02*
X5470182Y-17315889D01*
X5470182Y-17315889D02*
X5460658Y-17334936D01*
X5460658Y-17334936D02*
X5451134Y-17344460D01*
X5451134Y-17344460D02*
X5432086Y-17353984D01*
X5432086Y-17353984D02*
X5413039Y-17353984D01*
X5413039Y-17353984D02*
X5393991Y-17344460D01*
X5393991Y-17344460D02*
X5384467Y-17334936D01*
X5384467Y-17334936D02*
X5374944Y-17315889D01*
X5374944Y-17315889D02*
X5365420Y-17277793D01*
X5365420Y-17277793D02*
X5365420Y-17230174D01*
X5365420Y-17230174D02*
X5374944Y-17192079D01*
X5374944Y-17192079D02*
X5384467Y-17173031D01*
X5384467Y-17173031D02*
X5393991Y-17163508D01*
X5393991Y-17163508D02*
X5413039Y-17153984D01*
X5565420Y-17353984D02*
X5565420Y-17220650D01*
X5565420Y-17239698D02*
X5574944Y-17230174D01*
X5574944Y-17230174D02*
X5593991Y-17220650D01*
X5593991Y-17220650D02*
X5622563Y-17220650D01*
X5622563Y-17220650D02*
X5641610Y-17230174D01*
X5641610Y-17230174D02*
X5651134Y-17249222D01*
X5651134Y-17249222D02*
X5651134Y-17353984D01*
X5651134Y-17249222D02*
X5660658Y-17230174D01*
X5660658Y-17230174D02*
X5679705Y-17220650D01*
X5679705Y-17220650D02*
X5708277Y-17220650D01*
X5708277Y-17220650D02*
X5727324Y-17230174D01*
X5727324Y-17230174D02*
X5736848Y-17249222D01*
X5736848Y-17249222D02*
X5736848Y-17353984D01*
X5832086Y-17353984D02*
X5832086Y-17220650D01*
X5832086Y-17239698D02*
X5841610Y-17230174D01*
X5841610Y-17230174D02*
X5860658Y-17220650D01*
X5860658Y-17220650D02*
X5889229Y-17220650D01*
X5889229Y-17220650D02*
X5908277Y-17230174D01*
X5908277Y-17230174D02*
X5917801Y-17249222D01*
X5917801Y-17249222D02*
X5917801Y-17353984D01*
X5917801Y-17249222D02*
X5927324Y-17230174D01*
X5927324Y-17230174D02*
X5946372Y-17220650D01*
X5946372Y-17220650D02*
X5974943Y-17220650D01*
X5974943Y-17220650D02*
X5993991Y-17230174D01*
X5993991Y-17230174D02*
X6003515Y-17249222D01*
X6003515Y-17249222D02*
X6003515Y-17353984D01*
X6393991Y-17144460D02*
X6222563Y-17401603D01*
X6651134Y-17153984D02*
X6670182Y-17153984D01*
X6670182Y-17153984D02*
X6689229Y-17163508D01*
X6689229Y-17163508D02*
X6698753Y-17173031D01*
X6698753Y-17173031D02*
X6708277Y-17192079D01*
X6708277Y-17192079D02*
X6717801Y-17230174D01*
X6717801Y-17230174D02*
X6717801Y-17277793D01*
X6717801Y-17277793D02*
X6708277Y-17315889D01*
X6708277Y-17315889D02*
X6698753Y-17334936D01*
X6698753Y-17334936D02*
X6689229Y-17344460D01*
X6689229Y-17344460D02*
X6670182Y-17353984D01*
X6670182Y-17353984D02*
X6651134Y-17353984D01*
X6651134Y-17353984D02*
X6632086Y-17344460D01*
X6632086Y-17344460D02*
X6622563Y-17334936D01*
X6622563Y-17334936D02*
X6613039Y-17315889D01*
X6613039Y-17315889D02*
X6603515Y-17277793D01*
X6603515Y-17277793D02*
X6603515Y-17230174D01*
X6603515Y-17230174D02*
X6613039Y-17192079D01*
X6613039Y-17192079D02*
X6622563Y-17173031D01*
X6622563Y-17173031D02*
X6632086Y-17163508D01*
X6632086Y-17163508D02*
X6651134Y-17153984D01*
X6803515Y-17334936D02*
X6813039Y-17344460D01*
X6813039Y-17344460D02*
X6803515Y-17353984D01*
X6803515Y-17353984D02*
X6793991Y-17344460D01*
X6793991Y-17344460D02*
X6803515Y-17334936D01*
X6803515Y-17334936D02*
X6803515Y-17353984D01*
X6936848Y-17153984D02*
X6955896Y-17153984D01*
X6955896Y-17153984D02*
X6974944Y-17163508D01*
X6974944Y-17163508D02*
X6984467Y-17173031D01*
X6984467Y-17173031D02*
X6993991Y-17192079D01*
X6993991Y-17192079D02*
X7003515Y-17230174D01*
X7003515Y-17230174D02*
X7003515Y-17277793D01*
X7003515Y-17277793D02*
X6993991Y-17315889D01*
X6993991Y-17315889D02*
X6984467Y-17334936D01*
X6984467Y-17334936D02*
X6974944Y-17344460D01*
X6974944Y-17344460D02*
X6955896Y-17353984D01*
X6955896Y-17353984D02*
X6936848Y-17353984D01*
X6936848Y-17353984D02*
X6917801Y-17344460D01*
X6917801Y-17344460D02*
X6908277Y-17334936D01*
X6908277Y-17334936D02*
X6898753Y-17315889D01*
X6898753Y-17315889D02*
X6889229Y-17277793D01*
X6889229Y-17277793D02*
X6889229Y-17230174D01*
X6889229Y-17230174D02*
X6898753Y-17192079D01*
X6898753Y-17192079D02*
X6908277Y-17173031D01*
X6908277Y-17173031D02*
X6917801Y-17163508D01*
X6917801Y-17163508D02*
X6936848Y-17153984D01*
X7184467Y-17153984D02*
X7089229Y-17153984D01*
X7089229Y-17153984D02*
X7079706Y-17249222D01*
X7079706Y-17249222D02*
X7089229Y-17239698D01*
X7089229Y-17239698D02*
X7108277Y-17230174D01*
X7108277Y-17230174D02*
X7155896Y-17230174D01*
X7155896Y-17230174D02*
X7174944Y-17239698D01*
X7174944Y-17239698D02*
X7184467Y-17249222D01*
X7184467Y-17249222D02*
X7193991Y-17268270D01*
X7193991Y-17268270D02*
X7193991Y-17315889D01*
X7193991Y-17315889D02*
X7184467Y-17334936D01*
X7184467Y-17334936D02*
X7174944Y-17344460D01*
X7174944Y-17344460D02*
X7155896Y-17353984D01*
X7155896Y-17353984D02*
X7108277Y-17353984D01*
X7108277Y-17353984D02*
X7089229Y-17344460D01*
X7089229Y-17344460D02*
X7079706Y-17334936D01*
X7289229Y-17353984D02*
X7327325Y-17353984D01*
X7327325Y-17353984D02*
X7346372Y-17344460D01*
X7346372Y-17344460D02*
X7355896Y-17334936D01*
X7355896Y-17334936D02*
X7374944Y-17306365D01*
X7374944Y-17306365D02*
X7384467Y-17268270D01*
X7384467Y-17268270D02*
X7384467Y-17192079D01*
X7384467Y-17192079D02*
X7374944Y-17173031D01*
X7374944Y-17173031D02*
X7365420Y-17163508D01*
X7365420Y-17163508D02*
X7346372Y-17153984D01*
X7346372Y-17153984D02*
X7308277Y-17153984D01*
X7308277Y-17153984D02*
X7289229Y-17163508D01*
X7289229Y-17163508D02*
X7279706Y-17173031D01*
X7279706Y-17173031D02*
X7270182Y-17192079D01*
X7270182Y-17192079D02*
X7270182Y-17239698D01*
X7270182Y-17239698D02*
X7279706Y-17258746D01*
X7279706Y-17258746D02*
X7289229Y-17268270D01*
X7289229Y-17268270D02*
X7308277Y-17277793D01*
X7308277Y-17277793D02*
X7346372Y-17277793D01*
X7346372Y-17277793D02*
X7365420Y-17268270D01*
X7365420Y-17268270D02*
X7374944Y-17258746D01*
X7374944Y-17258746D02*
X7384467Y-17239698D01*
X7574944Y-17353984D02*
X7460658Y-17353984D01*
X7517801Y-17353984D02*
X7517801Y-17153984D01*
X7517801Y-17153984D02*
X7498753Y-17182555D01*
X7498753Y-17182555D02*
X7479706Y-17201603D01*
X7479706Y-17201603D02*
X7460658Y-17211127D01*
X7651134Y-17153984D02*
X7651134Y-17192079D01*
X7727325Y-17153984D02*
X7727325Y-17192079D01*
X8022563Y-17430174D02*
X8013039Y-17420650D01*
X8013039Y-17420650D02*
X7993991Y-17392079D01*
X7993991Y-17392079D02*
X7984468Y-17373031D01*
X7984468Y-17373031D02*
X7974944Y-17344460D01*
X7974944Y-17344460D02*
X7965420Y-17296841D01*
X7965420Y-17296841D02*
X7965420Y-17258746D01*
X7965420Y-17258746D02*
X7974944Y-17211127D01*
X7974944Y-17211127D02*
X7984468Y-17182555D01*
X7984468Y-17182555D02*
X7993991Y-17163508D01*
X7993991Y-17163508D02*
X8013039Y-17134936D01*
X8013039Y-17134936D02*
X8022563Y-17125412D01*
X8136848Y-17153984D02*
X8155896Y-17153984D01*
X8155896Y-17153984D02*
X8174944Y-17163508D01*
X8174944Y-17163508D02*
X8184468Y-17173031D01*
X8184468Y-17173031D02*
X8193991Y-17192079D01*
X8193991Y-17192079D02*
X8203515Y-17230174D01*
X8203515Y-17230174D02*
X8203515Y-17277793D01*
X8203515Y-17277793D02*
X8193991Y-17315889D01*
X8193991Y-17315889D02*
X8184468Y-17334936D01*
X8184468Y-17334936D02*
X8174944Y-17344460D01*
X8174944Y-17344460D02*
X8155896Y-17353984D01*
X8155896Y-17353984D02*
X8136848Y-17353984D01*
X8136848Y-17353984D02*
X8117801Y-17344460D01*
X8117801Y-17344460D02*
X8108277Y-17334936D01*
X8108277Y-17334936D02*
X8098753Y-17315889D01*
X8098753Y-17315889D02*
X8089229Y-17277793D01*
X8089229Y-17277793D02*
X8089229Y-17230174D01*
X8089229Y-17230174D02*
X8098753Y-17192079D01*
X8098753Y-17192079D02*
X8108277Y-17173031D01*
X8108277Y-17173031D02*
X8117801Y-17163508D01*
X8117801Y-17163508D02*
X8136848Y-17153984D01*
X8441611Y-17353984D02*
X8441611Y-17153984D01*
X8527325Y-17353984D02*
X8527325Y-17249222D01*
X8527325Y-17249222D02*
X8517801Y-17230174D01*
X8517801Y-17230174D02*
X8498753Y-17220650D01*
X8498753Y-17220650D02*
X8470182Y-17220650D01*
X8470182Y-17220650D02*
X8451134Y-17230174D01*
X8451134Y-17230174D02*
X8441611Y-17239698D01*
X8651134Y-17353984D02*
X8632087Y-17344460D01*
X8632087Y-17344460D02*
X8622563Y-17334936D01*
X8622563Y-17334936D02*
X8613039Y-17315889D01*
X8613039Y-17315889D02*
X8613039Y-17258746D01*
X8613039Y-17258746D02*
X8622563Y-17239698D01*
X8622563Y-17239698D02*
X8632087Y-17230174D01*
X8632087Y-17230174D02*
X8651134Y-17220650D01*
X8651134Y-17220650D02*
X8679706Y-17220650D01*
X8679706Y-17220650D02*
X8698753Y-17230174D01*
X8698753Y-17230174D02*
X8708277Y-17239698D01*
X8708277Y-17239698D02*
X8717801Y-17258746D01*
X8717801Y-17258746D02*
X8717801Y-17315889D01*
X8717801Y-17315889D02*
X8708277Y-17334936D01*
X8708277Y-17334936D02*
X8698753Y-17344460D01*
X8698753Y-17344460D02*
X8679706Y-17353984D01*
X8679706Y-17353984D02*
X8651134Y-17353984D01*
X8832087Y-17353984D02*
X8813039Y-17344460D01*
X8813039Y-17344460D02*
X8803515Y-17325412D01*
X8803515Y-17325412D02*
X8803515Y-17153984D01*
X8984468Y-17344460D02*
X8965420Y-17353984D01*
X8965420Y-17353984D02*
X8927325Y-17353984D01*
X8927325Y-17353984D02*
X8908277Y-17344460D01*
X8908277Y-17344460D02*
X8898753Y-17325412D01*
X8898753Y-17325412D02*
X8898753Y-17249222D01*
X8898753Y-17249222D02*
X8908277Y-17230174D01*
X8908277Y-17230174D02*
X8927325Y-17220650D01*
X8927325Y-17220650D02*
X8965420Y-17220650D01*
X8965420Y-17220650D02*
X8984468Y-17230174D01*
X8984468Y-17230174D02*
X8993992Y-17249222D01*
X8993992Y-17249222D02*
X8993992Y-17268270D01*
X8993992Y-17268270D02*
X8898753Y-17287317D01*
X9070182Y-17344460D02*
X9089230Y-17353984D01*
X9089230Y-17353984D02*
X9127325Y-17353984D01*
X9127325Y-17353984D02*
X9146373Y-17344460D01*
X9146373Y-17344460D02*
X9155896Y-17325412D01*
X9155896Y-17325412D02*
X9155896Y-17315889D01*
X9155896Y-17315889D02*
X9146373Y-17296841D01*
X9146373Y-17296841D02*
X9127325Y-17287317D01*
X9127325Y-17287317D02*
X9098753Y-17287317D01*
X9098753Y-17287317D02*
X9079706Y-17277793D01*
X9079706Y-17277793D02*
X9070182Y-17258746D01*
X9070182Y-17258746D02*
X9070182Y-17249222D01*
X9070182Y-17249222D02*
X9079706Y-17230174D01*
X9079706Y-17230174D02*
X9098753Y-17220650D01*
X9098753Y-17220650D02*
X9127325Y-17220650D01*
X9127325Y-17220650D02*
X9146373Y-17230174D01*
X9393992Y-17277793D02*
X9546373Y-17277793D01*
X9470182Y-17353984D02*
X9470182Y-17201603D01*
X9784468Y-17173031D02*
X9793992Y-17163508D01*
X9793992Y-17163508D02*
X9813039Y-17153984D01*
X9813039Y-17153984D02*
X9860658Y-17153984D01*
X9860658Y-17153984D02*
X9879706Y-17163508D01*
X9879706Y-17163508D02*
X9889230Y-17173031D01*
X9889230Y-17173031D02*
X9898754Y-17192079D01*
X9898754Y-17192079D02*
X9898754Y-17211127D01*
X9898754Y-17211127D02*
X9889230Y-17239698D01*
X9889230Y-17239698D02*
X9774944Y-17353984D01*
X9774944Y-17353984D02*
X9898754Y-17353984D01*
X10127325Y-17344460D02*
X10146373Y-17353984D01*
X10146373Y-17353984D02*
X10184468Y-17353984D01*
X10184468Y-17353984D02*
X10203516Y-17344460D01*
X10203516Y-17344460D02*
X10213039Y-17325412D01*
X10213039Y-17325412D02*
X10213039Y-17315889D01*
X10213039Y-17315889D02*
X10203516Y-17296841D01*
X10203516Y-17296841D02*
X10184468Y-17287317D01*
X10184468Y-17287317D02*
X10155896Y-17287317D01*
X10155896Y-17287317D02*
X10136849Y-17277793D01*
X10136849Y-17277793D02*
X10127325Y-17258746D01*
X10127325Y-17258746D02*
X10127325Y-17249222D01*
X10127325Y-17249222D02*
X10136849Y-17230174D01*
X10136849Y-17230174D02*
X10155896Y-17220650D01*
X10155896Y-17220650D02*
X10184468Y-17220650D01*
X10184468Y-17220650D02*
X10203516Y-17230174D01*
X10327325Y-17353984D02*
X10308277Y-17344460D01*
X10308277Y-17344460D02*
X10298754Y-17325412D01*
X10298754Y-17325412D02*
X10298754Y-17153984D01*
X10432087Y-17353984D02*
X10413039Y-17344460D01*
X10413039Y-17344460D02*
X10403516Y-17334936D01*
X10403516Y-17334936D02*
X10393992Y-17315889D01*
X10393992Y-17315889D02*
X10393992Y-17258746D01*
X10393992Y-17258746D02*
X10403516Y-17239698D01*
X10403516Y-17239698D02*
X10413039Y-17230174D01*
X10413039Y-17230174D02*
X10432087Y-17220650D01*
X10432087Y-17220650D02*
X10460658Y-17220650D01*
X10460658Y-17220650D02*
X10479706Y-17230174D01*
X10479706Y-17230174D02*
X10489230Y-17239698D01*
X10489230Y-17239698D02*
X10498754Y-17258746D01*
X10498754Y-17258746D02*
X10498754Y-17315889D01*
X10498754Y-17315889D02*
X10489230Y-17334936D01*
X10489230Y-17334936D02*
X10479706Y-17344460D01*
X10479706Y-17344460D02*
X10460658Y-17353984D01*
X10460658Y-17353984D02*
X10432087Y-17353984D01*
X10555897Y-17220650D02*
X10632087Y-17220650D01*
X10584468Y-17153984D02*
X10584468Y-17325412D01*
X10584468Y-17325412D02*
X10593992Y-17344460D01*
X10593992Y-17344460D02*
X10613039Y-17353984D01*
X10613039Y-17353984D02*
X10632087Y-17353984D01*
X10689230Y-17344460D02*
X10708277Y-17353984D01*
X10708277Y-17353984D02*
X10746373Y-17353984D01*
X10746373Y-17353984D02*
X10765420Y-17344460D01*
X10765420Y-17344460D02*
X10774944Y-17325412D01*
X10774944Y-17325412D02*
X10774944Y-17315889D01*
X10774944Y-17315889D02*
X10765420Y-17296841D01*
X10765420Y-17296841D02*
X10746373Y-17287317D01*
X10746373Y-17287317D02*
X10717801Y-17287317D01*
X10717801Y-17287317D02*
X10698754Y-17277793D01*
X10698754Y-17277793D02*
X10689230Y-17258746D01*
X10689230Y-17258746D02*
X10689230Y-17249222D01*
X10689230Y-17249222D02*
X10698754Y-17230174D01*
X10698754Y-17230174D02*
X10717801Y-17220650D01*
X10717801Y-17220650D02*
X10746373Y-17220650D01*
X10746373Y-17220650D02*
X10765420Y-17230174D01*
X10841611Y-17430174D02*
X10851135Y-17420650D01*
X10851135Y-17420650D02*
X10870182Y-17392079D01*
X10870182Y-17392079D02*
X10879706Y-17373031D01*
X10879706Y-17373031D02*
X10889230Y-17344460D01*
X10889230Y-17344460D02*
X10898754Y-17296841D01*
X10898754Y-17296841D02*
X10898754Y-17258746D01*
X10898754Y-17258746D02*
X10889230Y-17211127D01*
X10889230Y-17211127D02*
X10879706Y-17182555D01*
X10879706Y-17182555D02*
X10870182Y-17163508D01*
X10870182Y-17163508D02*
X10851135Y-17134936D01*
X10851135Y-17134936D02*
X10841611Y-17125412D01*
M02*
