%TF.GenerationSoftware,KiCad,Pcbnew,10.0.6*%
%TF.CreationDate,2026-09-14T21:58:20+08:00*%
%TF.ProjectId,V-Power,562d506f-7765-4722-9e6b-696361645f70,rev?*%
%TF.SameCoordinates,Original*%
%TF.FileFunction,Copper,L1,Top*%
%TF.FilePolarity,Positive*%
%FSLAX46Y46*%
G04 Gerber Fmt 4.6, Leading zero omitted, Abs format (unit mm)*
G04 Created by KiCad (PCBNEW 10.0.6) date 2026-09-14 21:58:20*
%MOMM*%
%LPD*%
G01*
G04 APERTURE LIST*
%TA.AperFunction,ComponentPad*%
%ADD10C,2.000000*%
%TD*%
%TA.AperFunction,ComponentPad*%
%ADD11O,1.600000X2.000000*%
%TD*%
%TA.AperFunction,ComponentPad*%
%ADD12R,1.800000X1.800000*%
%TD*%
%TA.AperFunction,ComponentPad*%
%ADD13C,1.800000*%
%TD*%
%TA.AperFunction,ComponentPad*%
%ADD14C,1.500000*%
%TD*%
%TA.AperFunction,ComponentPad*%
%ADD15R,2.000000X2.000000*%
%TD*%
%TA.AperFunction,ComponentPad*%
%ADD16R,3.200000X2.000000*%
%TD*%
%TA.AperFunction,ComponentPad*%
%ADD17R,1.700000X1.700000*%
%TD*%
%TA.AperFunction,ComponentPad*%
%ADD18C,1.700000*%
%TD*%
%TA.AperFunction,ComponentPad*%
%ADD19C,1.600000*%
%TD*%
%TA.AperFunction,ViaPad*%
%ADD20C,0.900000*%
%TD*%
%TA.AperFunction,ViaPad*%
%ADD21C,0.600000*%
%TD*%
%TA.AperFunction,Conductor*%
%ADD22C,0.500000*%
%TD*%
%TA.AperFunction,Conductor*%
%ADD23C,0.200000*%
%TD*%
G04 APERTURE END LIST*
D10*
%TO.P,SW2,1,1_1*%
%TO.N,/SW 2*%
X86500000Y-134950000D03*
X93000000Y-134950000D03*
%TO.P,SW2,2,2_2*%
%TO.N,GND*%
X86500000Y-139450000D03*
X93000000Y-139450000D03*
%TD*%
%TO.P,SW1,1,1_1*%
%TO.N,/SW 1*%
X96000000Y-127500000D03*
X102500000Y-127500000D03*
%TO.P,SW1,2,2_2*%
%TO.N,GND*%
X96000000Y-132000000D03*
X102500000Y-132000000D03*
%TD*%
D11*
%TO.P,J1-OLED1,1,Pin_1_1*%
%TO.N,+3.3V*%
X80390000Y-92260000D03*
%TO.P,J1-OLED1,2,Pin_2_2*%
%TO.N,GND*%
X82930000Y-92260000D03*
%TO.P,J1-OLED1,3,Pin_3_3*%
%TO.N,/SDA*%
X85470000Y-92260000D03*
%TO.P,J1-OLED1,4,Pin_4_4*%
%TO.N,/SCL*%
X88010000Y-92260000D03*
%TD*%
D10*
%TO.P,SW3,1,1_1*%
%TO.N,/SW 3*%
X105500000Y-135000000D03*
X112000000Y-135000000D03*
%TO.P,SW3,2,2_2*%
%TO.N,GND*%
X105500000Y-139500000D03*
X112000000Y-139500000D03*
%TD*%
D12*
%TO.P,D2,1,K_1*%
%TO.N,GND*%
X111500000Y-108000000D03*
D13*
%TO.P,D2,2,A_2*%
%TO.N,Net-(D2-A)*%
X108960000Y-108000000D03*
%TD*%
D14*
%TO.P,SW4,*%
%TO.N,*%
X74500000Y-135000000D03*
X74500000Y-140000000D03*
D15*
%TO.P,SW4,A,A_A*%
%TO.N,GND*%
X60000000Y-135000000D03*
D10*
%TO.P,SW4,B,B_B*%
%TO.N,/RoEN B*%
X60000000Y-140000000D03*
%TO.P,SW4,C,C_C*%
%TO.N,/RoEn A*%
X60000000Y-137500000D03*
D16*
%TO.P,SW4,MP*%
%TO.N,N/C*%
X67500000Y-131900000D03*
X67500000Y-143100000D03*
%TD*%
D10*
%TO.P,SW5,1,1_1*%
%TO.N,/SW 4*%
X96000000Y-142500000D03*
X102500000Y-142500000D03*
%TO.P,SW5,2,2_2*%
%TO.N,GND*%
X96000000Y-147000000D03*
X102500000Y-147000000D03*
%TD*%
D12*
%TO.P,D1,1,K_1*%
%TO.N,GND*%
X111500000Y-98500000D03*
D13*
%TO.P,D1,2,A_2*%
%TO.N,Net-(D1-A)*%
X108960000Y-98500000D03*
%TD*%
D17*
%TO.P,J2-MAX1,1,Pin_1_1*%
%TO.N,+3.3V*%
X59880000Y-115000000D03*
D18*
%TO.P,J2-MAX1,2,Pin_2_2*%
%TO.N,GND*%
X62420000Y-115000000D03*
%TO.P,J2-MAX1,3,Pin_3_3*%
%TO.N,/SDA*%
X64960000Y-115000000D03*
%TO.P,J2-MAX1,4,Pin_4_4*%
%TO.N,/SCL*%
X67500000Y-115000000D03*
%TD*%
D19*
%TO.P,R1,1*%
%TO.N,/LED 1*%
X101500000Y-92500000D03*
%TO.P,R1,2*%
%TO.N,Net-(D1-A)*%
X101500000Y-102660000D03*
%TD*%
%TO.P,R2,1*%
%TO.N,/LED 2*%
X101500000Y-106500000D03*
%TO.P,R2,2*%
%TO.N,Net-(D2-A)*%
X101500000Y-116660000D03*
%TD*%
D20*
%TO.N,+3.3V*%
X57000000Y-110500000D03*
D21*
%TO.N,/SDA*%
X65500000Y-121000000D03*
X83000000Y-118500000D03*
%TO.N,/SCL*%
X81500000Y-117000000D03*
X68000000Y-119000000D03*
%TO.N,/SW 3*%
X95000000Y-135000000D03*
%TO.N,/RoEN B*%
X61000000Y-130000000D03*
%TO.N,/RoEn A*%
X72500000Y-128000000D03*
X77000000Y-113000000D03*
X73000000Y-116500000D03*
%TO.N,/LED 1*%
X84000000Y-99000000D03*
%TO.N,/LED 2*%
X82000000Y-101500000D03*
%TD*%
%TO.N,+3.3V*%
D22*
X80390000Y-114610000D02*
X80390000Y-92260000D01*
X59880000Y-115000000D02*
X62380000Y-117500000D01*
X57000000Y-110500000D02*
X57000000Y-112120000D01*
X62380000Y-117500000D02*
X77500000Y-117500000D01*
X77500000Y-117500000D02*
X80390000Y-114610000D01*
X57000000Y-112120000D02*
X59880000Y-115000000D01*
%TO.N,/SDA*%
D23*
X80500000Y-121000000D02*
X65500000Y-121000000D01*
X83000000Y-118500000D02*
X80500000Y-121000000D01*
%TO.N,/SCL*%
X79500000Y-119000000D02*
X68000000Y-119000000D01*
X79500000Y-119000000D02*
X81500000Y-117000000D01*
%TO.N,/SW 3*%
X95000000Y-135000000D02*
X105500000Y-135000000D01*
X105500000Y-135000000D02*
X112000000Y-135000000D01*
%TO.N,Net-(D2-A)*%
X101500000Y-106500000D02*
X107460000Y-106500000D01*
X107460000Y-106500000D02*
X108960000Y-108000000D01*
%TO.N,/RoEN B*%
X61000000Y-130000000D02*
X57500000Y-130000000D01*
X58000000Y-139500000D02*
X59500000Y-139500000D01*
X57500000Y-139000000D02*
X58000000Y-139500000D01*
X59500000Y-139500000D02*
X60000000Y-140000000D01*
X57500000Y-130000000D02*
X57500000Y-139000000D01*
%TO.N,/RoEn A*%
X72500000Y-130100000D02*
X65100000Y-137500000D01*
X72500000Y-128000000D02*
X72500000Y-130100000D01*
X76500000Y-113000000D02*
X73000000Y-116500000D01*
X65100000Y-137500000D02*
X60000000Y-137500000D01*
X77000000Y-113000000D02*
X76500000Y-113000000D01*
%TO.N,Net-(D1-A)*%
X104800000Y-102660000D02*
X101500000Y-102660000D01*
X108960000Y-98500000D02*
X104800000Y-102660000D01*
%TO.N,/LED 1*%
X90500000Y-92500000D02*
X101500000Y-92500000D01*
X84000000Y-99000000D02*
X90500000Y-92500000D01*
%TO.N,/LED 2*%
X97160000Y-116660000D02*
X101500000Y-116660000D01*
X82000000Y-101500000D02*
X97160000Y-116660000D01*
%TD*%
M02*
